<svg xmlns="http://www.w3.org/2000/svg" xmlns:xlink="http://www.w3.org/1999/xlink" zoomAndPan="magnify" preserveAspectRatio="xMidYMid meet" version="1.0" viewBox="1.67 141.65 373.22 108.33"><defs><g/><clipPath id="16ae1c35f8"><path d="M 368 215 L 374.695312 215 L 374.695312 221 L 368 221 Z M 368 215 " clip-rule="nonzero"/></clipPath><clipPath id="c26d3e2025"><path d="M 293 141.652344 L 374.695312 141.652344 L 374.695312 233.152344 L 293 233.152344 Z M 293 141.652344 " clip-rule="nonzero"/></clipPath></defs><path fill="#ffffff" d="M 365.441406 167.816406 C 365.355469 167.152344 364.589844 166.351562 363.976562 166.863281 C 363.03125 167.648438 363.867188 170.34375 363.867188 170.34375 C 365.433594 170.871094 366.511719 169.96875 366.847656 169.074219 C 367.179688 168.191406 366.792969 167.3125 365.441406 167.816406 " fill-opacity="1" fill-rule="evenodd"/><path fill="#ffffff" d="M 294.855469 214.777344 C 295.628906 215.6875 299.367188 215.386719 299.367188 215.386719 C 299.203125 214.132812 298.894531 212.320312 297.847656 211.484375 C 297.335938 211.078125 296.101562 211.210938 296.167969 212.066406 C 296.191406 212.378906 296.339844 212.65625 296.535156 212.910156 C 296.109375 212.816406 295.648438 212.816406 295.261719 212.945312 C 294.453125 213.21875 294.332031 214.164062 294.855469 214.777344 " fill-opacity="1" fill-rule="evenodd"/><g clip-path="url(#16ae1c35f8)"><path fill="#ffffff" d="M 371.183594 217.199219 C 371.183594 217.199219 370.871094 216.5 370.515625 216.085938 C 369.765625 215.222656 368.628906 215.609375 368.324219 216.636719 C 367.808594 218.378906 369.8125 220.835938 369.8125 220.835938 C 371.128906 220.644531 372.296875 220.339844 373.441406 219.621094 C 374.03125 219.253906 374.546875 218.699219 374.507812 217.960938 C 374.417969 216.109375 372.09375 215.777344 371.183594 217.199219 " fill-opacity="1" fill-rule="evenodd"/></g><path fill="#ffffff" d="M 296.695312 178.839844 C 296.667969 178.4375 296.671875 178.042969 296.671875 177.722656 C 296.671875 177.566406 296.789062 177.4375 296.949219 177.425781 C 297.105469 177.414062 297.242188 177.523438 297.265625 177.679688 C 297.308594 177.992188 297.328125 178.40625 297.292969 178.839844 C 297.308594 179.007812 297.328125 179.175781 297.359375 179.335938 C 297.417969 179.65625 297.515625 179.953125 297.695312 180.15625 C 297.917969 180.410156 298.289062 180.464844 298.609375 180.507812 C 298.644531 180.511719 298.945312 180.53125 299.054688 180.578125 C 299.253906 180.667969 299.289062 180.828125 299.257812 180.957031 C 299.246094 181.003906 299.222656 181.054688 299.175781 181.105469 C 299.144531 181.140625 299.066406 181.195312 298.953125 181.253906 C 298.792969 181.332031 298.515625 181.453125 298.253906 181.644531 C 298.027344 181.8125 297.808594 182.035156 297.722656 182.347656 C 297.667969 182.566406 297.625 183.191406 297.558594 183.609375 C 297.515625 183.863281 297.445312 184.054688 297.386719 184.125 C 297.304688 184.222656 297.21875 184.238281 297.15625 184.238281 C 297.074219 184.242188 296.996094 184.214844 296.929688 184.148438 C 296.902344 184.121094 296.863281 184.070312 296.84375 183.996094 C 296.835938 183.953125 296.832031 183.875 296.824219 183.839844 C 296.796875 183.628906 296.78125 183.414062 296.761719 183.203125 C 296.71875 182.738281 296.710938 182.121094 296.417969 181.726562 C 296.320312 181.597656 296.175781 181.589844 296.035156 181.59375 C 295.875 181.59375 295.710938 181.613281 295.554688 181.613281 C 295.507812 181.613281 294.953125 181.597656 294.851562 181.582031 C 294.648438 181.554688 294.601562 181.402344 294.589844 181.371094 C 294.566406 181.296875 294.570312 181.21875 294.613281 181.144531 C 294.632812 181.101562 294.71875 181.007812 294.878906 180.925781 C 295.183594 180.773438 295.890625 180.507812 296.03125 180.425781 C 296.296875 180.265625 296.457031 179.949219 296.5625 179.589844 C 296.628906 179.351562 296.671875 179.09375 296.695312 178.839844 Z M 296.988281 180.152344 C 296.835938 180.492188 296.617188 180.769531 296.335938 180.9375 C 296.3125 180.953125 296.269531 180.972656 296.214844 181 C 296.472656 181.027344 296.710938 181.121094 296.894531 181.371094 C 297.039062 181.558594 297.132812 181.792969 297.195312 182.039062 C 297.359375 181.609375 297.683594 181.300781 298.015625 181.082031 C 298.046875 181.0625 298.074219 181.042969 298.105469 181.023438 C 297.78125 180.941406 297.464844 180.800781 297.246094 180.550781 C 297.144531 180.4375 297.058594 180.300781 296.988281 180.152344 " fill-opacity="1" fill-rule="evenodd"/><path fill="#ffffff" d="M 362.246094 183.921875 C 362.261719 183.371094 362.320312 182.824219 362.363281 182.386719 C 362.378906 182.230469 362.511719 182.113281 362.667969 182.117188 C 362.824219 182.121094 362.953125 182.246094 362.957031 182.402344 C 362.980469 182.832031 362.945312 183.398438 362.84375 183.980469 C 362.839844 184.21875 362.84375 184.460938 362.863281 184.695312 C 362.90625 185.164062 363.003906 185.601562 363.234375 185.921875 C 363.523438 186.320312 364.054688 186.464844 364.511719 186.570312 C 364.558594 186.582031 364.949219 186.640625 365.085938 186.71875 C 365.28125 186.828125 365.304688 186.996094 365.257812 187.128906 C 365.242188 187.175781 365.214844 187.226562 365.160156 187.273438 C 365.117188 187.3125 365.015625 187.371094 364.867188 187.425781 C 364.632812 187.511719 364.230469 187.644531 363.839844 187.875 C 363.484375 188.085938 363.132812 188.382812 362.964844 188.832031 C 362.859375 189.121094 362.714844 189.984375 362.566406 190.546875 C 362.480469 190.867188 362.375 191.101562 362.289062 191.183594 C 362.199219 191.273438 362.109375 191.28125 362.042969 191.277344 C 361.964844 191.273438 361.886719 191.238281 361.828125 191.164062 C 361.800781 191.132812 361.765625 191.074219 361.757812 190.996094 C 361.746094 190.941406 361.753906 190.839844 361.75 190.792969 C 361.742188 190.5 361.75 190.207031 361.75 189.914062 C 361.75 189.25 361.820312 188.378906 361.460938 187.78125 C 361.347656 187.601562 361.183594 187.539062 361 187.507812 C 360.746094 187.464844 360.460938 187.480469 360.203125 187.457031 C 360.140625 187.449219 359.394531 187.355469 359.257812 187.320312 C 359.054688 187.273438 359.019531 187.113281 359.011719 187.082031 C 358.996094 187.003906 359.007812 186.929688 359.054688 186.859375 C 359.085938 186.8125 359.203125 186.714844 359.402344 186.640625 C 359.839844 186.46875 360.847656 186.199219 361.054688 186.101562 C 361.46875 185.910156 361.75 185.472656 361.953125 184.964844 C 362.085938 184.636719 362.179688 184.277344 362.246094 183.921875 Z M 362.386719 185.460938 C 362.128906 185.996094 361.769531 186.425781 361.3125 186.644531 C 361.210938 186.691406 360.917969 186.78125 360.59375 186.878906 C 360.761719 186.886719 360.9375 186.890625 361.101562 186.917969 C 361.449219 186.976562 361.757812 187.121094 361.972656 187.472656 C 362.210938 187.871094 362.300781 188.375 362.332031 188.875 C 362.359375 188.769531 362.382812 188.683594 362.40625 188.621094 C 362.652344 187.96875 363.179688 187.542969 363.699219 187.269531 C 363.824219 187.203125 363.960938 187.136719 364.09375 187.082031 C 363.582031 186.9375 363.0625 186.707031 362.75 186.269531 C 362.585938 186.042969 362.46875 185.765625 362.386719 185.460938 " fill-opacity="1" fill-rule="evenodd"/><g clip-path="url(#c26d3e2025)"><path fill="#ffffff" d="M 326.027344 218.4375 C 326.015625 218.4375 326.007812 218.433594 326 218.433594 C 323.347656 217.710938 319.527344 216.128906 316.753906 212.632812 C 315.957031 211.628906 315.179688 210.355469 314.476562 208.976562 C 314.511719 208.945312 314.453125 208.929688 314.476562 208.976562 C 314.425781 209.019531 314.363281 209.054688 314.292969 209.074219 C 313.1875 209.378906 310.820312 208.890625 309.808594 208.484375 C 308.15625 207.828125 307.179688 206.816406 306.6875 205.71875 C 305.941406 204.050781 306.324219 202.15625 307.277344 200.875 C 307.425781 200.675781 307.589844 200.492188 307.761719 200.324219 C 306.171875 196.273438 305.515625 192.789062 305.941406 189.191406 C 305.679688 189.238281 305.300781 189.289062 305.304688 189.269531 C 305.167969 189.269531 305.023438 189.222656 304.882812 189.097656 C 304.765625 188.992188 304.628906 188.789062 304.507812 188.515625 C 304.167969 187.753906 303.832031 186.347656 303.746094 186.070312 C 303.398438 184.929688 302.800781 184.015625 302.714844 183.136719 C 302.648438 182.429688 302.847656 181.726562 303.664062 180.980469 C 303.902344 180.761719 304.648438 180.152344 305.988281 179.410156 C 305.992188 179.394531 305.996094 179.378906 306 179.363281 C 306.570312 177.527344 307.328125 175.851562 308.257812 174.285156 C 307.96875 174.367188 307.675781 174.433594 307.375 174.488281 C 306.34375 174.6875 305.261719 174.757812 304.292969 174.832031 C 295.03125 175.550781 291.507812 165.222656 294.953125 156.140625 C 297.5 149.429688 303.824219 143.433594 314.34375 143.332031 C 317.261719 143.304688 319.894531 143.914062 322.128906 145.179688 C 323.140625 145.753906 324.070312 146.460938 324.910156 147.304688 C 325.046875 146.9375 325.242188 146.582031 325.476562 146.242188 C 325.992188 145.5 326.699219 144.832031 327.363281 144.3125 C 329.832031 142.386719 332.695312 141.652344 335.363281 142.070312 C 337.941406 142.46875 340.34375 143.941406 342.058594 146.46875 C 343.179688 145.996094 344.394531 145.675781 345.628906 145.46875 C 346.988281 145.246094 348.375 145.160156 349.691406 145.167969 C 350.632812 145.171875 351.605469 145.242188 352.542969 145.433594 C 353.507812 145.628906 354.4375 145.949219 355.285156 146.453125 C 356.121094 146.953125 356.855469 147.589844 357.503906 148.308594 C 358.453125 149.359375 359.21875 150.589844 359.886719 151.820312 C 362.3125 156.308594 362.824219 161.171875 361.351562 164.925781 C 359.988281 168.386719 356.949219 170.933594 352.113281 171.382812 C 352.121094 171.414062 352.128906 171.449219 352.132812 171.484375 C 352.191406 171.800781 352.210938 172.132812 352.257812 172.445312 C 353.65625 172.632812 354.304688 173.089844 354.640625 173.789062 C 354.996094 174.527344 354.964844 175.636719 355.050781 177.238281 C 355.0625 177.492188 355.214844 179.042969 355.207031 179.953125 C 355.203125 180.3125 355.164062 181.085938 355.109375 181.21875 C 355.105469 181.226562 355.101562 181.234375 355.097656 181.242188 C 355.097656 181.242188 354.496094 181.152344 353.792969 181.042969 C 355.246094 184.644531 355.152344 188.777344 354.84375 192.503906 C 355.429688 192.671875 355.992188 193.003906 356.480469 193.457031 C 357.652344 194.539062 358.375 196.332031 357.945312 198.109375 C 357.664062 199.277344 356.886719 200.453125 355.382812 201.398438 C 354.527344 201.9375 353.238281 202.511719 352.144531 202.519531 C 351.992188 203.640625 351.726562 204.726562 351.316406 205.71875 C 350.011719 208.867188 348.296875 211.203125 346.460938 212.964844 C 346.46875 212.984375 346.472656 213.011719 346.476562 213.035156 C 346.519531 213.535156 346.640625 213.890625 346.824219 214.148438 C 347.101562 214.53125 347.519531 214.695312 347.996094 214.84375 C 348.941406 215.144531 350.105469 215.378906 351.132812 216.566406 C 351.96875 217.535156 352.859375 218.828125 352.980469 220.5625 C 353.066406 221.71875 352.8125 223.066406 351.960938 224.648438 C 351.933594 224.699219 351.894531 224.742188 351.847656 224.769531 C 352.035156 224.972656 352.214844 225.179688 352.382812 225.398438 L 352.875 224.46875 C 352.875 224.46875 353.449219 223.46875 353.609375 223.171875 C 353.730469 222.949219 355.148438 220.304688 355.5 219.640625 C 355.246094 219.132812 355.074219 218.773438 355.042969 218.671875 C 354.976562 218.457031 355.007812 218.109375 355.167969 217.773438 C 355.304688 217.476562 355.527344 217.195312 355.726562 217.019531 C 356.246094 216.738281 356.003906 216.488281 356.121094 215.980469 C 356.273438 215.761719 356.453125 215.570312 356.605469 215.464844 C 356.597656 215.265625 356.648438 215.019531 356.761719 214.777344 C 356.957031 214.355469 357.324219 213.96875 357.550781 213.871094 C 357.554688 213.726562 357.589844 213.566406 357.648438 213.402344 C 358.265625 212.257812 359.285156 212.367188 359.285156 212.367188 C 359.285156 212.367188 360.644531 209.90625 360.835938 209.542969 C 360.910156 209.402344 361.851562 207.609375 361.957031 207.410156 C 361.90625 207.347656 361.867188 207.277344 361.84375 207.199219 C 361.804688 207.046875 361.828125 206.882812 361.914062 206.75 C 361.914062 206.75 362.328125 206.132812 362.488281 205.722656 C 362.3125 205.621094 362.167969 205.527344 362.066406 205.453125 C 361.550781 205.070312 361.179688 204.621094 361.082031 204.207031 C 360.988281 203.808594 361.058594 203.265625 361.257812 202.671875 C 361.261719 202.660156 364.125 196.652344 364.039062 196.921875 C 364.355469 196.347656 364.703125 195.765625 365.074219 195.234375 C 365.816406 194.164062 366.652344 193.304688 367.46875 192.988281 C 368.523438 192.578125 369.804688 192.710938 370.902344 192.820312 C 372.179688 192.953125 373.367188 193.175781 374.335938 194.097656 C 374.589844 194.339844 374.816406 194.648438 374.875 195.003906 C 374.933594 195.371094 374.851562 195.875 374.667969 196.417969 C 374.304688 197.488281 373.5625 198.773438 373.230469 199.386719 C 372.453125 200.820312 371.644531 202.246094 370.914062 203.699219 C 370.359375 204.804688 369.878906 205.816406 369.335938 206.542969 C 368.910156 207.109375 368.441406 207.511719 367.902344 207.707031 C 367.597656 207.816406 366.882812 207.648438 366.050781 207.351562 C 366.003906 207.421875 365.964844 207.515625 365.917969 207.613281 C 365.808594 207.839844 365.6875 208.082031 365.550781 208.265625 C 365.347656 208.539062 365.097656 208.703125 364.820312 208.738281 C 364.703125 208.753906 364.542969 208.738281 364.359375 208.6875 C 363.886719 209.640625 363.023438 211.371094 362.429688 212.464844 C 362.132812 213.019531 361.835938 213.570312 361.539062 214.125 C 361.921875 214.574219 362.238281 215.035156 362.421875 215.410156 C 362.6875 215.964844 363.410156 218.882812 363.71875 220.902344 C 363.863281 221.859375 363.894531 222.632812 363.800781 222.933594 C 363.765625 223.058594 363.683594 223.164062 363.582031 223.234375 C 363.546875 223.597656 363.472656 223.964844 363.34375 224.328125 L 363.152344 224.867188 C 363.199219 224.902344 363.242188 224.9375 363.28125 224.96875 C 363.515625 225.171875 363.613281 225.386719 363.628906 225.519531 C 363.644531 225.628906 363.628906 225.804688 363.507812 226 C 363.371094 226.214844 363.007812 226.578125 362.929688 226.671875 C 362.496094 227.15625 362.195312 227.980469 361.9375 228.597656 C 361.992188 229.074219 362.035156 229.859375 361.902344 230.777344 C 361.65625 232.449219 360.988281 234.566406 360.625 235.726562 C 359.835938 238.238281 358.964844 240.707031 357.417969 242.859375 C 357.164062 243.210938 356.875 243.601562 356.558594 243.96875 C 356.324219 244.273438 356.082031 244.554688 355.828125 244.8125 L 355.824219 244.816406 C 355.242188 245.410156 354.597656 245.875 353.910156 246.148438 C 353.183594 246.433594 352.402344 246.507812 351.570312 246.296875 L 351.5625 246.296875 C 351.511719 246.28125 351.457031 246.265625 351.398438 246.25 C 350.269531 245.910156 349.136719 244.851562 348.113281 243.4375 C 348.046875 244.671875 347.949219 245.6875 347.792969 247.242188 C 347.78125 247.386719 347.671875 248.636719 347.671875 248.636719 L 347.570312 249.628906 L 346.394531 249.980469 C 346.394531 249.980469 346.589844 248.289062 346.597656 248.199219 C 346.644531 247.679688 346.675781 247.25 346.6875 247.128906 C 346.902344 244.972656 347.003906 243.859375 347.078125 241.730469 C 347.027344 241.65625 346.773438 241.304688 346.519531 241.03125 C 345.476562 239.910156 343.542969 238.117188 342.28125 235.964844 C 341.34375 234.359375 340.890625 232.742188 340.59375 231.527344 C 340.417969 230.796875 340.308594 230.222656 340.164062 229.925781 C 340.121094 229.835938 340.105469 229.738281 340.113281 229.636719 L 340.863281 220.957031 C 340.601562 220.945312 339.769531 220.914062 339.726562 220.914062 L 338.992188 229.382812 C 338.984375 229.476562 338.953125 229.566406 338.902344 229.640625 L 338.671875 229.992188 C 338.570312 230.148438 338.394531 230.242188 338.207031 230.242188 C 337.585938 230.242188 328.347656 230.242188 327.722656 230.242188 C 327.535156 230.242188 327.359375 230.148438 327.257812 229.992188 L 327.027344 229.640625 C 326.976562 229.566406 326.945312 229.476562 326.9375 229.382812 L 326.105469 220.507812 C 326.007812 220.519531 325.902344 220.53125 325.808594 220.546875 C 325.542969 220.589844 325.253906 220.644531 324.980469 220.6875 L 325.816406 229.636719 C 325.824219 229.738281 325.808594 229.835938 325.765625 229.925781 C 325.371094 230.75 324.71875 234.710938 323.132812 237.199219 C 322.046875 238.902344 320.625 240.074219 319.664062 240.933594 C 319.378906 241.191406 319.140625 241.414062 318.972656 241.617188 C 318.925781 241.675781 318.882812 241.730469 318.855469 241.785156 C 318.84375 241.804688 318.832031 241.835938 318.828125 241.847656 C 318.917969 243.605469 319.066406 245.359375 319.242188 247.128906 C 319.253906 247.246094 319.285156 247.652344 319.328125 248.148438 C 319.339844 248.253906 319.417969 249.078125 319.417969 249.078125 L 318.265625 248.710938 C 318.265625 248.710938 318.265625 248.6875 318.261719 248.675781 C 318.195312 248.003906 318.152344 247.386719 318.136719 247.242188 C 318.042969 246.304688 317.914062 244.601562 317.8125 243.136719 C 317.300781 243.894531 316.757812 244.632812 316.199219 245.296875 C 314.949219 246.789062 313.601562 247.890625 312.335938 248.132812 L 312.25 248.148438 C 310.542969 248.441406 309.148438 247.613281 308.054688 246.238281 C 307.917969 246.136719 307.804688 246.007812 307.710938 245.863281 C 307.609375 245.703125 307.53125 245.511719 307.425781 245.347656 C 307.152344 244.949219 306.902344 244.535156 306.683594 244.160156 C 305.359375 241.863281 304.738281 239.320312 304.207031 236.746094 C 303.960938 235.550781 303.503906 233.378906 303.429688 231.691406 C 303.386719 230.765625 303.507812 229.988281 303.609375 229.519531 C 303.414062 228.878906 303.195312 228.03125 302.816406 227.503906 C 302.742188 227.402344 302.417969 227.003906 302.308594 226.777344 C 302.207031 226.574219 302.207031 226.394531 302.234375 226.289062 C 302.265625 226.15625 302.378906 225.949219 302.632812 225.773438 C 302.671875 225.746094 302.714844 225.71875 302.761719 225.691406 L 302.625 225.132812 C 302.523438 224.710938 302.484375 224.292969 302.5 223.882812 C 302.460938 223.824219 302.433594 223.757812 302.421875 223.6875 C 302.359375 223.378906 302.457031 222.617188 302.679688 221.683594 C 303.152344 219.707031 304.109375 216.875 304.429688 216.351562 C 304.578125 216.109375 304.792969 215.835938 305.050781 215.554688 C 304.667969 214.835938 304.285156 214.117188 303.898438 213.398438 C 303.25 212.183594 302.195312 210.050781 301.6875 209.011719 C 301 208.949219 300.246094 208.636719 299.519531 208.148438 C 298.324219 207.34375 297.1875 206.078125 296.542969 204.90625 C 295.207031 202.492188 295.789062 199.675781 297.734375 198.601562 C 299.0625 197.867188 300.585938 198.246094 301.621094 198.703125 C 302.65625 199.160156 303.425781 200.414062 303.941406 201.34375 C 304.429688 202.226562 304.597656 203.410156 304.703125 204.277344 C 304.796875 205.027344 304.742188 205.65625 304.578125 206.542969 C 304.496094 207 304.367188 207.417969 304.191406 207.777344 C 304.664062 208.691406 305.820312 210.921875 306.515625 212.230469 C 306.789062 212.742188 307.058594 213.257812 307.328125 213.769531 C 307.390625 213.742188 307.453125 213.714844 307.515625 213.691406 C 307.867188 213.554688 308.28125 213.511719 308.632812 213.699219 C 308.847656 213.8125 309.179688 214.238281 309.335938 214.683594 C 309.414062 214.902344 309.441406 215.121094 309.429688 215.304688 C 309.644531 215.421875 309.972656 215.847656 310.125 216.285156 C 310.210938 216.535156 310.238281 216.785156 310.210938 216.984375 C 310.414062 217.160156 310.660156 217.515625 310.789062 217.878906 C 310.875 218.125 310.898438 218.371094 310.875 218.566406 C 311.070312 218.753906 311.292969 219.082031 311.414062 219.421875 C 311.535156 219.777344 311.535156 220.121094 311.445312 220.328125 C 311.414062 220.40625 311.277344 220.632812 311.074219 220.960938 C 311.722656 222.195312 312.375 223.429688 313.039062 224.660156 C 313.082031 224.738281 313.394531 225.328125 313.769531 226.039062 C 314.253906 225.230469 314.886719 224.519531 315.601562 223.890625 C 317.539062 222.1875 320.101562 221.109375 321.996094 220.421875 C 322.417969 220.265625 322.929688 220.097656 323.449219 219.96875 C 323.585938 219.933594 324.414062 219.75 324.828125 219.679688 C 325.199219 219.617188 325.609375 219.597656 325.945312 219.550781 C 325.980469 219.546875 326.015625 219.542969 326.050781 219.539062 C 326.042969 219.222656 326.023438 218.808594 326.027344 218.4375 Z M 323.875 220.820312 C 323.324219 220.949219 322.765625 221.136719 322.3125 221.300781 C 320.808594 221.847656 318.851562 222.648438 317.171875 223.839844 C 315.980469 224.6875 314.921875 225.734375 314.289062 227.039062 C 314.664062 227.769531 314.996094 228.449219 315.085938 228.710938 C 315.226562 229.125 315.304688 229.5 315.304688 229.804688 C 315.308594 230.0625 315.257812 230.285156 315.164062 230.460938 C 314.832031 231.097656 314.390625 230.949219 314.179688 230.980469 L 314.175781 230.980469 C 314.023438 230.949219 313.847656 230.875 313.664062 230.730469 C 313.394531 230.527344 313.074219 230.15625 312.746094 229.679688 C 312.210938 228.914062 311.625 227.871094 311.140625 226.964844 L 304.683594 229.8125 C 304.597656 230.210938 304.503906 230.863281 304.539062 231.640625 C 304.613281 233.269531 305.058594 235.367188 305.296875 236.519531 C 305.804688 238.976562 306.382812 241.414062 307.648438 243.605469 C 307.851562 243.960938 308.089844 244.351562 308.351562 244.726562 C 308.355469 244.734375 308.363281 244.742188 308.367188 244.753906 C 308.441406 244.875 309.683594 247.027344 311.289062 247 C 312.867188 246.972656 314.320312 245.808594 315.347656 244.582031 C 316.078125 243.714844 316.777344 242.714844 317.417969 241.710938 C 317.632812 241.375 317.59375 241.4375 317.75 241.171875 C 317.878906 240.875 318.210938 240.636719 318.535156 240.410156 C 318.605469 240.359375 318.851562 240.171875 318.90625 240.121094 C 319.816406 239.308594 321.167969 238.207031 322.195312 236.601562 C 323.667969 234.285156 324.304688 230.667969 324.699219 229.601562 Z M 339.089844 234.613281 C 339.027344 234.363281 338.804688 234.1875 338.550781 234.1875 L 327.304688 234.1875 C 327.046875 234.1875 326.824219 234.363281 326.765625 234.613281 C 326.765625 234.613281 325.828125 238.445312 325.921875 241.28125 C 325.96875 242.664062 326.296875 243.816406 326.953125 244.351562 C 327.375 244.699219 328.046875 244.988281 328.878906 245.195312 C 330.019531 245.480469 331.472656 245.625 332.925781 245.625 C 334.382812 245.625 335.835938 245.480469 336.976562 245.195312 C 337.804688 244.988281 338.476562 244.699219 338.902344 244.351562 C 339.554688 243.816406 339.886719 242.664062 339.933594 241.28125 C 340.027344 238.445312 339.089844 234.613281 339.089844 234.613281 Z M 341.972656 221.054688 L 341.234375 229.597656 C 341.335938 229.863281 341.433594 230.246094 341.542969 230.714844 C 341.820312 231.882812 342.21875 233.652344 343.242188 235.402344 C 344.371094 237.335938 346.074219 238.957031 347.113281 240.042969 C 347.199219 240.132812 347.285156 240.238281 347.371094 240.351562 C 347.480469 240.40625 347.636719 240.589844 347.847656 240.960938 C 347.953125 241.144531 348.058594 241.324219 348.167969 241.503906 C 348.359375 241.820312 348.554688 242.125 348.753906 242.417969 C 349.226562 243.109375 350.65625 244.992188 352.023438 245.257812 C 353.328125 245.511719 354.417969 244.625 355.113281 243.953125 C 355.832031 243.257812 356.277344 242.542969 356.515625 242.210938 C 357.097656 241.402344 357.578125 240.542969 357.992188 239.65625 L 359.050781 236.96875 C 359.230469 236.449219 359.398438 235.921875 359.5625 235.394531 C 359.914062 234.273438 360.566406 232.230469 360.800781 230.617188 C 360.847656 230.296875 360.871094 230 360.875 229.726562 L 361.082031 228.917969 L 355.320312 225.660156 C 354.882812 226.460938 354.375 227.335938 353.914062 227.996094 C 353.59375 228.453125 353.285156 228.808594 353.027344 229.003906 C 352.941406 229.070312 352.65625 229.179688 352.355469 229.140625 C 352.019531 229.101562 351.660156 228.894531 351.539062 228.695312 C 351.441406 228.539062 351.417969 228.328125 351.417969 228.089844 C 351.421875 227.796875 351.5 227.4375 351.636719 227.039062 C 351.699219 226.851562 351.828125 226.546875 351.941406 226.292969 C 350.65625 224.417969 348.441406 223.039062 346.152344 222.148438 C 344.722656 221.59375 343.261719 221.226562 341.972656 221.054688 Z M 338.105469 235.300781 L 327.746094 235.300781 C 327.515625 236.339844 326.960938 239.09375 327.035156 241.246094 C 327.050781 241.789062 327.109375 242.292969 327.230469 242.714844 C 327.324219 243.046875 327.453125 243.324219 327.65625 243.492188 C 327.980469 243.757812 328.507812 243.957031 329.148438 244.117188 C 330.210938 244.382812 331.570312 244.511719 332.925781 244.511719 C 334.285156 244.511719 335.640625 244.382812 336.707031 244.117188 C 337.34375 243.957031 337.871094 243.757812 338.199219 243.492188 C 338.402344 243.324219 338.53125 243.046875 338.625 242.714844 C 338.746094 242.292969 338.804688 241.789062 338.820312 241.246094 C 338.890625 239.09375 338.339844 236.339844 338.105469 235.300781 Z M 328.871094 237.394531 C 331.214844 237.257812 334.964844 237.1875 337.308594 237.335938 C 337.617188 237.351562 337.878906 237.121094 337.898438 236.8125 C 337.917969 236.507812 337.683594 236.242188 337.378906 236.222656 C 335 236.074219 331.1875 236.144531 328.804688 236.28125 C 328.5 236.300781 328.265625 236.5625 328.285156 236.871094 C 328.300781 237.175781 328.5625 237.410156 328.871094 237.394531 Z M 310.386719 222.042969 C 310.28125 222.210938 310.167969 222.386719 310.050781 222.566406 C 310.433594 223.28125 310.820312 223.992188 311.207031 224.703125 C 311.582031 225.386719 312.703125 227.675781 313.65625 229.046875 C 313.84375 229.3125 314.023438 229.542969 314.1875 229.710938 L 314.1875 229.714844 C 314.171875 229.523438 314.113281 229.304688 314.03125 229.066406 C 313.585938 227.738281 312.460938 225.933594 312.058594 225.1875 C 311.496094 224.140625 310.941406 223.09375 310.386719 222.042969 Z M 338.519531 222.15625 C 338.535156 221.976562 338.546875 221.796875 338.558594 221.613281 C 338.5625 221.542969 338.5625 221.433594 338.566406 221.3125 C 337.414062 221.613281 335.996094 221.632812 334.976562 221.644531 C 332.359375 221.671875 329.738281 221.511719 327.210938 220.820312 C 327.210938 220.84375 327.210938 220.863281 327.214844 220.875 C 327.21875 220.957031 327.222656 221.039062 327.222656 221.121094 L 328.03125 229.132812 L 337.898438 229.132812 L 338.5 222.175781 C 338.507812 222.171875 338.515625 222.164062 338.519531 222.15625 Z M 309.480469 223.851562 C 309.449219 223.863281 309.414062 223.878906 309.40625 223.882812 C 307.820312 224.539062 306.277344 225.277344 304.714844 225.992188 C 304.585938 226.050781 304.121094 226.238281 303.714844 226.4375 C 303.644531 226.472656 303.570312 226.511719 303.5 226.554688 L 303.714844 226.851562 C 304.0625 227.332031 304.3125 228.035156 304.511719 228.671875 L 310.625 225.980469 C 310.457031 225.660156 310.324219 225.402344 310.234375 225.234375 C 309.980469 224.773438 309.730469 224.3125 309.480469 223.851562 Z M 356.117188 220.851562 C 355.609375 221.804688 355.101562 222.753906 354.585938 223.703125 C 354.203125 224.410156 353.121094 226.132812 352.6875 227.398438 C 352.621094 227.59375 352.570312 227.773438 352.546875 227.9375 C 352.691406 227.785156 352.84375 227.585938 353.003906 227.355469 C 353.921875 226.050781 355 223.871094 355.359375 223.21875 C 355.699219 222.601562 356.039062 221.980469 356.378906 221.359375 C 356.289062 221.1875 356.199219 221.019531 356.117188 220.851562 Z M 356.992188 222.550781 C 356.800781 222.910156 356.609375 223.25 356.332031 223.753906 C 356.226562 223.949219 356.054688 224.277344 355.84375 224.679688 L 361.125 227.664062 C 361.386719 227.050781 361.703125 226.375 362.097656 225.933594 L 362.34375 225.660156 C 362.277344 225.609375 362.207031 225.5625 362.140625 225.523438 C 361.753906 225.28125 361.3125 225.050781 361.1875 224.980469 C 359.792969 224.160156 358.414062 223.328125 356.992188 222.550781 Z M 303.613281 224.226562 C 303.621094 224.4375 303.652344 224.652344 303.703125 224.867188 L 303.78125 225.1875 C 304 225.089844 304.179688 225.015625 304.253906 224.980469 C 304.714844 224.769531 305.175781 224.554688 305.636719 224.34375 C 304.855469 224.34375 304.125 224.285156 303.613281 224.226562 Z M 345.933594 213.449219 C 345.679688 213.675781 345.421875 213.890625 345.167969 214.09375 C 345.171875 214.105469 345.171875 214.117188 345.175781 214.125 C 345.355469 215.058594 345.851562 215.382812 346.480469 215.628906 C 346.996094 215.828125 347.582031 215.984375 348.183594 216.28125 C 350.113281 217.234375 351.328125 218.851562 351.375 221.035156 C 351.382812 221.394531 351.265625 222.535156 351.011719 223.289062 C 350.949219 223.480469 350.871094 223.652344 350.785156 223.789062 C 351.042969 224.003906 351.324219 224.246094 351.402344 224.320312 C 351.414062 224.332031 351.429688 224.347656 351.445312 224.359375 C 352.222656 222.90625 352.464844 221.667969 352.390625 220.605469 C 352.277344 219.019531 351.449219 217.839844 350.683594 216.953125 C 349.75 215.875 348.679688 215.683594 347.816406 215.410156 C 347.210938 215.21875 346.695312 214.984375 346.34375 214.492188 C 346.15625 214.234375 346.011719 213.898438 345.933594 213.449219 Z M 362.445312 223.363281 C 361.9375 223.371094 361.253906 223.363281 360.53125 223.300781 C 360.9375 223.539062 361.34375 223.78125 361.75 224.019531 C 361.820312 224.058594 361.984375 224.148438 362.1875 224.261719 L 362.292969 223.957031 C 362.363281 223.761719 362.414062 223.5625 362.445312 223.363281 Z M 344.457031 214.640625 C 343.785156 215.148438 342.820312 215.847656 341.550781 216.539062 C 341.550781 216.546875 341.554688 216.554688 341.554688 216.566406 C 341.640625 217.089844 341.667969 217.613281 341.554688 218.140625 C 341.480469 218.480469 341.257812 218.917969 341.082031 219.359375 C 340.984375 219.601562 340.894531 219.847656 340.898438 220.074219 C 340.917969 220.074219 340.933594 220.074219 340.953125 220.074219 C 342.546875 220.15625 344.539062 220.570312 346.476562 221.328125 C 346.558594 221.359375 346.644531 221.394531 346.730469 221.425781 C 346.523438 220.835938 346.164062 220.300781 345.664062 219.914062 C 345.171875 219.53125 344.574219 219.160156 344.335938 218.554688 C 344.273438 218.394531 344.351562 218.210938 344.511719 218.148438 C 344.675781 218.085938 344.855469 218.164062 344.921875 218.324219 C 345.011719 218.554688 345.175781 218.730469 345.363281 218.890625 C 345.582031 219.082031 345.828125 219.246094 346.046875 219.417969 C 346.792969 219.992188 347.277344 220.832031 347.464844 221.746094 C 348.40625 222.175781 349.316406 222.6875 350.140625 223.28125 C 350.175781 223.207031 350.207031 223.121094 350.238281 223.03125 C 350.460938 222.367188 350.566406 221.371094 350.558594 221.050781 C 350.515625 219.191406 349.464844 217.828125 347.820312 217.015625 C 347.242188 216.730469 346.675781 216.582031 346.183594 216.390625 C 345.390625 216.082031 344.757812 215.671875 344.457031 214.640625 Z M 308.089844 214.679688 C 308.082031 214.679688 308.074219 214.683594 308.0625 214.6875 C 308.011719 214.695312 307.960938 214.710938 307.910156 214.730469 C 307.070312 215.050781 305.835938 216.183594 305.382812 216.929688 C 305.082031 217.421875 304.207031 220.089844 303.761719 221.945312 C 303.652344 222.402344 303.558594 222.804688 303.519531 223.097656 C 304.160156 223.179688 305.375 223.296875 306.539062 223.195312 C 307.074219 223.148438 307.597656 223.054688 308.042969 222.886719 C 308.414062 222.746094 308.730469 222.554688 308.917969 222.269531 C 309.632812 221.171875 310.253906 220.214844 310.398438 219.941406 C 310.386719 219.886719 310.355469 219.757812 310.320312 219.675781 C 310.28125 219.59375 310.203125 219.476562 310.167969 219.421875 C 310.164062 219.421875 310.160156 219.425781 310.15625 219.425781 C 309.929688 219.453125 309.707031 219.335938 309.601562 219.128906 C 309.496094 218.925781 309.523438 218.679688 309.675781 218.507812 C 309.714844 218.460938 309.75 218.425781 309.773438 218.390625 C 309.761719 218.335938 309.726562 218.210938 309.695312 218.132812 C 309.65625 218.042969 309.574219 217.925781 309.539062 217.871094 C 309.523438 217.875 309.507812 217.882812 309.492188 217.886719 C 309.253906 217.9375 309.011719 217.832031 308.890625 217.621094 C 308.769531 217.410156 308.800781 217.144531 308.964844 216.964844 C 309.023438 216.902344 309.078125 216.847656 309.109375 216.796875 C 309.097656 216.742188 309.066406 216.617188 309.03125 216.539062 C 308.992188 216.453125 308.914062 216.335938 308.878906 216.28125 C 308.871094 216.285156 308.867188 216.285156 308.859375 216.289062 C 308.808594 216.296875 308.761719 216.3125 308.714844 216.328125 C 308.472656 216.417969 308.199219 216.328125 308.058594 216.109375 C 307.914062 215.894531 307.941406 215.609375 308.121094 215.421875 C 308.203125 215.335938 308.277344 215.257812 308.320312 215.195312 C 308.308594 215.140625 308.277344 215.015625 308.242188 214.9375 C 308.203125 214.847656 308.125 214.734375 308.089844 214.679688 Z M 359.195312 213.492188 L 358.878906 214.132812 C 358.863281 214.121094 358.84375 214.109375 358.824219 214.097656 C 358.828125 214.101562 358.835938 214.109375 358.839844 214.117188 C 359 214.320312 359 214.609375 358.835938 214.8125 C 358.671875 215.011719 358.394531 215.074219 358.160156 214.960938 C 358.117188 214.9375 358.070312 214.917969 358.019531 214.90625 C 358.015625 214.90625 358.007812 214.902344 358 214.898438 C 357.960938 214.949219 357.871094 215.058594 357.824219 215.140625 C 357.78125 215.214844 357.738281 215.335938 357.71875 215.386719 C 357.75 215.441406 357.792969 215.5 357.847656 215.570312 C 357.996094 215.765625 357.996094 216.03125 357.855469 216.230469 C 357.714844 216.425781 357.460938 216.507812 357.230469 216.433594 C 357.214844 216.429688 357.199219 216.417969 357.183594 216.414062 C 357.144531 216.464844 357.054688 216.574219 357.007812 216.660156 C 356.964844 216.734375 356.917969 216.851562 356.902344 216.90625 C 356.921875 216.945312 356.953125 216.984375 356.988281 217.03125 C 357.121094 217.21875 357.125 217.46875 357 217.660156 C 356.871094 217.851562 356.640625 217.949219 356.414062 217.898438 C 356.414062 217.898438 356.410156 217.898438 356.40625 217.894531 C 356.363281 217.945312 356.277344 218.050781 356.230469 218.132812 C 356.1875 218.210938 356.140625 218.335938 356.125 218.386719 C 356.246094 218.683594 356.796875 219.753906 357.421875 220.957031 C 357.578125 221.257812 357.871094 221.472656 358.226562 221.640625 C 358.65625 221.847656 359.171875 221.984375 359.703125 222.078125 C 360.871094 222.28125 362.113281 222.269531 362.761719 222.242188 C 362.75 221.949219 362.691406 221.539062 362.621094 221.070312 C 362.328125 219.167969 361.667969 216.414062 361.417969 215.890625 C 361.050781 215.128906 359.996094 213.933594 359.195312 213.492188 Z M 338.089844 218.015625 C 337.839844 218.097656 337.585938 218.175781 337.320312 218.25 C 336.257812 218.542969 335.207031 218.882812 334.230469 219.125 C 333.753906 219.570312 333.34375 220.085938 332.996094 220.660156 C 333.652344 220.683594 334.308594 220.6875 334.964844 220.679688 C 336.050781 220.667969 337.636719 220.683594 338.742188 220.25 C 338.703125 219.882812 338.5625 219.507812 338.453125 219.164062 C 338.367188 218.898438 338.253906 218.433594 338.089844 218.015625 Z M 326.988281 218.675781 C 326.996094 219.066406 327.015625 219.476562 327.015625 219.761719 C 328.46875 220.203125 329.957031 220.445312 331.460938 220.574219 C 331.238281 220.042969 331.058594 219.648438 330.859375 219.347656 C 329.015625 219.148438 327.257812 218.777344 327.269531 218.738281 C 327.179688 218.71875 327.085938 218.699219 326.988281 218.675781 Z M 340.960938 216.84375 C 340.367188 217.144531 339.710938 217.433594 339 217.699219 C 339.164062 218.132812 339.285156 218.597656 339.371094 218.875 C 339.484375 219.238281 339.617188 219.632812 339.683594 220.023438 C 339.757812 220.023438 339.828125 220.023438 339.902344 220.03125 C 340.058594 220.042969 340.179688 220.050781 340.277344 220.054688 C 340.28125 219.84375 340.328125 219.625 340.398438 219.398438 C 340.558594 218.902344 340.859375 218.394531 340.941406 218.007812 C 341.023438 217.617188 341.011719 217.234375 340.960938 216.84375 Z M 332.679688 219.414062 C 332.445312 219.4375 332.222656 219.449219 332.007812 219.445312 C 332.121094 219.667969 332.203125 219.867188 332.265625 220.007812 C 332.394531 219.804688 332.53125 219.605469 332.679688 219.414062 Z M 335.675781 181.003906 C 333.375 181.285156 331.085938 181.644531 328.808594 182.070312 C 325.910156 182.609375 323.035156 183.261719 320.179688 184.015625 C 320.394531 185.722656 320.058594 187.503906 319.742188 189.171875 C 319.644531 189.675781 319.539062 190.195312 319.421875 190.722656 C 319.480469 190.710938 319.542969 190.703125 319.601562 190.691406 C 319.832031 190.65625 320.0625 190.625 320.292969 190.597656 C 320.4375 190.578125 320.988281 190.523438 321.109375 190.515625 C 322.230469 190.429688 323.332031 190.449219 324.3125 190.582031 C 324.570312 190.617188 324.746094 190.855469 324.710938 191.113281 C 324.675781 191.367188 324.441406 191.546875 324.183594 191.511719 C 322.847656 191.328125 321.28125 191.378906 319.75 191.617188 C 319.558594 191.648438 319.371094 191.679688 319.183594 191.714844 C 318.410156 194.746094 317.113281 197.867188 314.4375 199.507812 C 314.292969 199.59375 314.105469 199.550781 314.019531 199.40625 C 313.929688 199.261719 313.976562 199.074219 314.117188 198.984375 C 316.578125 197.476562 317.789062 194.652344 318.523438 191.855469 C 317.992188 191.976562 317.472656 192.121094 316.980469 192.285156 L 316.667969 192.394531 C 315.652344 195.253906 314.257812 198.117188 312.535156 200.023438 C 312.929688 203.394531 315.097656 208.996094 317.507812 212.035156 C 320.730469 216.09375 325.464844 217.421875 327.753906 217.851562 C 329.457031 218.171875 330.46875 218.570312 332.148438 218.4375 C 333.96875 218.292969 335.636719 217.59375 336.234375 217.425781 C 339.75 216.332031 346.78125 214.152344 350.425781 205.351562 C 351.933594 201.714844 351.324219 196.789062 350.671875 193.480469 C 350.667969 193.453125 350.664062 193.425781 350.664062 193.398438 C 348.421875 192.421875 346.3125 191.199219 344.398438 189.722656 C 343.734375 189.648438 343.046875 189.609375 342.355469 189.613281 C 344.15625 191.121094 346.242188 192.296875 348.460938 193.085938 C 348.621094 193.144531 348.703125 193.316406 348.648438 193.476562 C 348.589844 193.636719 348.417969 193.71875 348.257812 193.664062 C 345.753906 192.773438 343.421875 191.40625 341.453125 189.640625 C 340.09375 189.714844 338.757812 189.933594 337.628906 190.304688 C 337.382812 190.386719 337.117188 190.25 337.039062 190.003906 C 336.957031 189.757812 337.09375 189.492188 337.339844 189.414062 C 338.296875 189.097656 339.398438 188.882812 340.542969 188.769531 C 339.527344 187.734375 338.632812 186.582031 337.882812 185.320312 C 337.054688 183.929688 336.445312 182.425781 335.675781 181.003906 Z M 302.90625 201.832031 C 302.851562 201.710938 302.792969 201.59375 302.734375 201.484375 C 301.726562 199.660156 299.742188 198.761719 298.273438 199.574219 C 296.800781 200.386719 296.507812 202.542969 297.515625 204.367188 C 298.085938 205.402344 299.085938 206.515625 300.140625 207.226562 C 300.777344 207.652344 301.429688 207.941406 302.007812 207.910156 C 302.230469 207.894531 302.4375 208.019531 302.539062 208.21875 C 302.953125 209.070312 304.164062 211.535156 304.878906 212.875 C 305.214844 213.5 305.546875 214.128906 305.882812 214.753906 C 306.046875 214.613281 306.210938 214.480469 306.378906 214.355469 C 306.097656 213.820312 305.816406 213.285156 305.53125 212.75 C 304.753906 211.285156 303.402344 208.671875 303.066406 208.023438 C 302.972656 207.84375 302.984375 207.632812 303.089844 207.46875 C 303.425781 206.9375 303.566406 206.15625 303.582031 205.3125 C 303.589844 204.636719 303.515625 203.921875 303.367188 203.253906 C 303.203125 202.757812 303.050781 202.28125 302.90625 201.832031 Z M 362.902344 207.992188 C 362.335938 209.074219 361.425781 210.804688 360.875 211.839844 C 360.683594 212.195312 360.492188 212.554688 360.300781 212.910156 C 360.445312 213.023438 360.589844 213.148438 360.730469 213.277344 C 360.972656 212.832031 361.210938 212.386719 361.453125 211.9375 C 361.988281 210.945312 362.8125 209.304688 363.339844 208.242188 C 363.191406 208.160156 363.042969 208.074219 362.902344 207.992188 Z M 314.066406 208.136719 C 312.902344 205.667969 312.003906 202.96875 311.683594 200.886719 C 311.589844 200.882812 311.496094 200.855469 311.414062 200.792969 C 310.472656 200.089844 309.5 200.210938 308.734375 200.769531 C 308.683594 200.835938 308.617188 200.894531 308.53125 200.929688 C 308.355469 201.082031 308.195312 201.257812 308.050781 201.449219 C 307.289062 202.476562 306.96875 203.988281 307.566406 205.328125 C 307.972656 206.234375 308.796875 207.046875 310.164062 207.589844 C 311.007812 207.925781 313.113281 208.402344 314.035156 208.144531 C 314.046875 208.144531 314.058594 208.140625 314.066406 208.136719 Z M 369.617188 199.8125 L 369.601562 199.789062 C 369.316406 199.414062 368.871094 199.160156 368.480469 198.90625 C 368.113281 198.664062 367.105469 198.234375 366.640625 198.1875 C 366.609375 198.226562 366.546875 198.296875 366.515625 198.347656 C 366.433594 198.476562 366.371094 198.605469 366.332031 198.679688 C 365.792969 199.679688 365.265625 200.683594 364.785156 201.710938 C 364.609375 202.097656 364.128906 202.859375 363.78125 203.554688 C 363.597656 203.910156 363.433594 204.238281 363.441406 204.453125 C 363.441406 204.597656 363.539062 204.800781 363.59375 205.015625 C 363.65625 205.269531 363.683594 205.527344 363.636719 205.757812 C 363.582031 206.03125 363.347656 206.492188 363.144531 206.847656 C 363.433594 207.019531 363.773438 207.222656 364.09375 207.386719 C 364.277344 207.480469 364.527344 207.570312 364.644531 207.613281 C 364.6875 207.550781 364.757812 207.445312 364.800781 207.367188 C 364.976562 207.027344 365.144531 206.664062 365.324219 206.492188 C 365.449219 206.371094 365.617188 206.289062 365.824219 206.238281 C 365.976562 206.199219 366.195312 206.210938 366.371094 206.023438 C 366.804688 205.554688 366.984375 204.871094 367.242188 204.296875 C 367.476562 203.769531 367.757812 203.253906 368.027344 202.742188 C 368.457031 201.929688 368.921875 201.136719 369.339844 200.316406 C 369.390625 200.210938 369.457031 200.105469 369.519531 199.996094 C 369.554688 199.933594 369.597656 199.875 369.617188 199.8125 Z M 367.273438 206.679688 C 367.375 206.691406 367.460938 206.683594 367.519531 206.664062 C 367.980469 206.496094 368.332031 206.074219 368.679688 205.53125 C 369.097656 204.886719 369.484375 204.074219 369.921875 203.203125 C 370.65625 201.734375 371.46875 200.300781 372.25 198.859375 C 372.523438 198.355469 373.085938 197.390625 373.457031 196.484375 C 373.660156 195.980469 373.828125 195.507812 373.777344 195.183594 C 373.757812 195.0625 373.652344 194.984375 373.566406 194.902344 C 372.789062 194.160156 371.816406 194.03125 370.789062 193.929688 C 369.859375 193.832031 368.769531 193.675781 367.871094 194.023438 C 367.214844 194.28125 366.582031 195.011719 365.988281 195.867188 C 365.007812 197.28125 364.175781 199.070312 363.710938 200.097656 C 363.5 200.566406 362.886719 201.597656 362.480469 202.578125 C 362.261719 203.105469 362.082031 203.609375 362.164062 203.949219 C 362.183594 204.046875 362.257812 204.140625 362.347656 204.230469 C 362.386719 204 362.480469 203.714844 362.613281 203.414062 C 362.957031 202.644531 363.570312 201.691406 363.78125 201.242188 C 364.269531 200.195312 364.804688 199.167969 365.355469 198.152344 C 365.449219 197.976562 365.652344 197.570312 365.910156 197.34375 C 366.109375 197.164062 366.339844 197.070312 366.582031 197.070312 C 367.136719 197.078125 368.585938 197.644531 369.09375 197.976562 C 369.582031 198.296875 370.128906 198.644531 370.488281 199.117188 C 370.644531 199.324219 370.765625 199.589844 370.738281 199.859375 C 370.703125 200.199219 370.480469 200.523438 370.332031 200.816406 C 369.914062 201.644531 369.445312 202.441406 369.011719 203.257812 C 368.753906 203.75 368.484375 204.246094 368.257812 204.753906 C 367.96875 205.390625 367.730469 206.128906 367.273438 206.679688 Z M 309.066406 204.195312 C 309.417969 204.320312 309.730469 204.632812 310.035156 204.847656 C 310.660156 205.289062 311.316406 205.570312 312.058594 205.742188 C 312.316406 205.800781 312.578125 205.640625 312.636719 205.382812 C 312.695312 205.121094 312.535156 204.863281 312.277344 204.804688 C 311.65625 204.660156 311.109375 204.425781 310.589844 204.058594 C 310.21875 203.796875 309.824219 203.441406 309.390625 203.289062 C 309.140625 203.199219 308.863281 203.328125 308.773438 203.578125 C 308.683594 203.828125 308.8125 204.105469 309.066406 204.195312 Z M 352.25 201.554688 C 353.140625 201.523438 354.175781 201.019531 354.867188 200.582031 C 356.113281 199.800781 356.777344 198.851562 357.007812 197.882812 C 357.351562 196.460938 356.765625 195.03125 355.828125 194.164062 C 354.851562 193.257812 353.464844 192.980469 352.402344 194.128906 C 352.238281 194.300781 351.980469 194.332031 351.785156 194.207031 C 352 195.429688 352.1875 196.808594 352.269531 198.234375 C 352.277344 198.234375 352.28125 198.230469 352.285156 198.230469 C 352.867188 197.976562 353.359375 197.644531 353.804688 197.191406 C 354.125 196.867188 354.449219 196.445312 354.847656 196.210938 C 355.074219 196.078125 355.371094 196.15625 355.503906 196.386719 C 355.640625 196.613281 355.5625 196.910156 355.332031 197.042969 C 355.003906 197.234375 354.753906 197.597656 354.496094 197.863281 C 353.960938 198.410156 353.367188 198.808594 352.667969 199.113281 C 352.550781 199.164062 352.421875 199.164062 352.308594 199.121094 C 352.328125 199.929688 352.3125 200.75 352.25 201.554688 Z M 317.65625 184.707031 C 317.261719 184.820312 316.875 184.929688 316.484375 185.046875 C 315.734375 185.265625 314.996094 185.503906 314.261719 185.761719 C 314.234375 185.828125 313.125 186.21875 313.148438 186.164062 C 312.253906 186.496094 311.367188 186.855469 310.488281 187.230469 C 309.640625 187.589844 308.269531 188.378906 307.046875 188.855469 C 307.015625 188.867188 306.984375 188.878906 306.949219 188.890625 C 306.757812 190.25 306.730469 191.585938 306.851562 192.9375 C 308.441406 192.167969 310.199219 190.382812 310.667969 188.769531 C 310.714844 188.609375 310.886719 188.515625 311.046875 188.5625 C 311.210938 188.609375 311.300781 188.777344 311.253906 188.941406 C 310.722656 190.761719 308.699219 192.792969 306.921875 193.578125 C 307.167969 195.539062 307.722656 197.546875 308.5625 199.726562 C 308.972656 199.496094 309.414062 199.355469 309.875 199.328125 C 310.929688 197.234375 311.796875 194.867188 311.945312 192.523438 C 311.957031 192.355469 312.101562 192.226562 312.269531 192.238281 C 312.4375 192.25 312.566406 192.394531 312.554688 192.5625 C 312.40625 194.898438 311.574219 197.261719 310.539062 199.367188 C 310.871094 199.425781 311.207031 199.542969 311.539062 199.730469 C 313.175781 198.082031 314.511719 195.523438 315.511719 192.878906 L 315.503906 192.886719 C 315.074219 193.097656 314.542969 193.351562 314.0625 193.644531 C 313.761719 193.828125 313.480469 194.023438 313.265625 194.242188 C 313.082031 194.425781 312.785156 194.425781 312.601562 194.242188 C 312.523438 194.164062 312.480469 194.070312 312.46875 193.96875 C 312.464844 193.945312 312.464844 193.78125 312.511719 193.691406 C 312.535156 193.636719 312.582031 193.597656 312.601562 193.578125 C 312.863281 193.3125 313.207031 193.066406 313.574219 192.839844 C 314.078125 192.535156 314.636719 192.265625 315.085938 192.042969 C 315.359375 191.910156 315.648438 191.78125 315.949219 191.664062 C 316.570312 189.835938 317.035156 188.023438 317.328125 186.503906 C 317.4375 185.925781 317.621094 185.3125 317.65625 184.707031 Z M 352.671875 180.875 C 352.164062 180.796875 351.753906 180.734375 351.675781 180.722656 C 349.949219 180.445312 348.253906 180.320312 346.550781 180.292969 C 346.421875 180.292969 346.292969 180.292969 346.167969 180.289062 C 346.167969 180.289062 345.699219 180.296875 345.351562 180.300781 C 346.921875 181.503906 348.632812 182.359375 350.59375 182.914062 C 350.753906 182.960938 350.847656 183.128906 350.800781 183.292969 C 350.757812 183.453125 350.585938 183.546875 350.425781 183.503906 C 348.140625 182.851562 346.183594 181.816406 344.390625 180.308594 C 343.394531 180.335938 342.390625 180.390625 341.378906 180.457031 C 340.28125 180.53125 339.191406 180.625 338.101562 180.734375 C 338.488281 181.785156 339.183594 182.761719 339.808594 183.648438 C 341.214844 185.632812 342.882812 187.351562 344.746094 188.820312 C 345.429688 188.90625 346.082031 189.035156 346.675781 189.207031 C 347.160156 189.34375 347.753906 189.507812 348.304688 189.722656 C 348.707031 189.878906 349.089844 190.058594 349.394531 190.273438 C 349.609375 190.421875 349.660156 190.714844 349.511719 190.925781 C 349.363281 191.140625 349.070312 191.191406 348.859375 191.042969 C 348.609375 190.867188 348.296875 190.722656 347.96875 190.597656 C 347.515625 190.421875 347.035156 190.285156 346.617188 190.164062 C 348.289062 191.265625 350.085938 192.1875 351.96875 192.941406 C 352.035156 192.96875 352.09375 193.007812 352.136719 193.058594 C 352.691406 192.621094 353.289062 192.414062 353.886719 192.386719 C 353.886719 192.359375 353.890625 192.332031 353.894531 192.304688 C 352.996094 192.140625 352.074219 191.632812 351.210938 190.960938 C 349.890625 189.929688 348.699219 188.519531 347.941406 187.464844 C 347.839844 187.328125 347.871094 187.136719 348.007812 187.039062 C 348.144531 186.941406 348.335938 186.972656 348.433594 187.109375 C 349.167969 188.125 350.3125 189.484375 351.585938 190.476562 C 352.347656 191.070312 353.152344 191.535156 353.941406 191.691406 C 354.203125 188.117188 354.203125 184.21875 352.671875 180.875 Z M 319.585938 184.171875 C 319.25 184.261719 318.917969 184.355469 318.585938 184.445312 C 318.59375 185.191406 318.375 185.960938 318.238281 186.679688 C 317.972656 188.050781 317.574219 189.640625 317.046875 191.277344 C 317.597656 191.109375 318.179688 190.960938 318.769531 190.839844 C 318.910156 190.230469 319.03125 189.632812 319.140625 189.058594 C 319.445312 187.476562 319.769531 185.792969 319.585938 184.171875 Z M 337.15625 180.832031 C 336.878906 180.863281 336.601562 180.894531 336.328125 180.925781 C 337.039062 182.277344 337.625 183.695312 338.40625 185.011719 C 339.21875 186.375 340.214844 187.613281 341.34375 188.707031 C 341.558594 188.695312 341.773438 188.6875 341.992188 188.679688 C 342.375 188.671875 342.757812 188.675781 343.136719 188.6875 C 341.621094 187.367188 340.246094 185.867188 339.054688 184.183594 C 338.339844 183.175781 337.558594 182.042969 337.15625 180.832031 Z M 337.792969 179.820312 C 338.964844 179.703125 340.136719 179.601562 341.3125 179.523438 C 343.089844 179.402344 344.828125 179.328125 346.566406 179.355469 C 348.3125 179.382812 350.054688 179.511719 351.824219 179.792969 C 352.132812 179.84375 353.558594 180.15625 354.261719 180.183594 C 354.3125 179.375 354.125 177.5625 354.113281 177.285156 C 354.035156 175.855469 354.113281 174.855469 353.792969 174.195312 C 353.660156 173.917969 353.4375 173.722656 353.074219 173.585938 C 352.652344 173.425781 352.070312 173.339844 351.269531 173.304688 C 350.421875 173.265625 349.574219 173.246094 348.726562 173.238281 C 347.445312 173.226562 346.164062 173.238281 344.886719 173.246094 C 342.226562 173.257812 339.539062 173.230469 336.863281 173.296875 C 335.082031 173.339844 333.308594 173.421875 331.546875 173.585938 C 328.882812 173.835938 324.929688 174.574219 320.867188 175.535156 C 317.171875 176.40625 313.390625 177.460938 310.40625 178.496094 C 309.121094 178.941406 308.050781 179.40625 307.183594 179.84375 C 305.476562 180.699219 304.558594 181.433594 304.296875 181.675781 C 303.773438 182.15625 303.605469 182.589844 303.648438 183.046875 C 303.730469 183.871094 304.316406 184.726562 304.644531 185.796875 C 304.734375 186.089844 305.105469 187.726562 305.460938 188.324219 C 305.824219 188.292969 306.253906 188.15625 306.707031 187.980469 C 307.917969 187.511719 309.277344 186.726562 310.117188 186.367188 C 311.113281 185.941406 312.117188 185.539062 313.132812 185.167969 C 314.148438 184.796875 315.175781 184.453125 316.21875 184.144531 C 320.308594 182.941406 324.453125 181.929688 328.636719 181.148438 C 331.417969 180.628906 334.214844 180.207031 337.027344 179.902344 C 337.089844 179.785156 337.199219 179.695312 337.339844 179.664062 C 337.515625 179.625 337.6875 179.691406 337.792969 179.820312 Z M 325.652344 148.113281 C 326.378906 148.972656 327.023438 149.949219 327.578125 151.046875 C 327.695312 151.277344 327.601562 151.558594 327.371094 151.675781 C 327.140625 151.792969 326.855469 151.699219 326.742188 151.46875 C 325.496094 149.007812 323.769531 147.191406 321.664062 146 C 319.566406 144.808594 317.09375 144.242188 314.351562 144.269531 C 304.3125 144.367188 298.261719 150.070312 295.832031 156.472656 C 292.640625 164.878906 295.648438 174.558594 304.222656 173.894531 C 305.15625 173.824219 306.203125 173.757812 307.199219 173.566406 C 307.84375 173.445312 308.46875 173.273438 309.023438 173.003906 C 309.042969 172.996094 309.0625 172.988281 309.085938 172.980469 C 310.257812 171.246094 311.644531 169.644531 313.207031 168.105469 C 313.390625 167.925781 313.6875 167.925781 313.871094 168.109375 C 314.050781 168.296875 314.050781 168.59375 313.863281 168.773438 C 312.269531 170.351562 310.855469 171.992188 309.679688 173.785156 C 308.660156 175.328125 307.816406 176.984375 307.175781 178.800781 C 307.992188 178.410156 308.964844 178 310.097656 177.609375 C 313.109375 176.566406 316.925781 175.5 320.652344 174.621094 C 324.761719 173.648438 328.761719 172.902344 331.460938 172.652344 C 333.242188 172.488281 335.039062 172.402344 336.839844 172.359375 C 339.523438 172.292969 342.214844 172.320312 344.882812 172.308594 C 346.164062 172.300781 347.449219 172.289062 348.734375 172.300781 C 349.589844 172.308594 350.445312 172.328125 351.300781 172.367188 C 351.277344 172.128906 351.253906 171.886719 351.210938 171.648438 C 351.199219 171.578125 351.183594 171.511719 351.164062 171.441406 C 350.875 171.453125 350.574219 171.457031 350.269531 171.449219 C 348.703125 171.425781 347.050781 171.089844 345.554688 170.4375 C 344.035156 169.773438 342.671875 168.78125 341.707031 167.46875 C 341.550781 167.261719 341.597656 166.96875 341.804688 166.8125 C 342.015625 166.660156 342.308594 166.703125 342.460938 166.914062 C 343.332031 168.09375 344.5625 168.980469 345.929688 169.578125 C 347.3125 170.179688 348.835938 170.492188 350.28125 170.511719 C 355.707031 170.59375 359.078125 168.140625 360.476562 164.582031 C 361.863281 161.054688 361.339844 156.484375 359.0625 152.269531 C 358.535156 151.292969 357.941406 150.316406 357.234375 149.441406 C 356.546875 148.585938 355.753906 147.824219 354.804688 147.257812 C 354.050781 146.808594 353.214844 146.527344 352.359375 146.351562 C 351.476562 146.175781 350.570312 146.109375 349.683594 146.105469 C 348.421875 146.097656 347.089844 146.179688 345.785156 146.394531 C 344.496094 146.609375 343.226562 146.957031 342.082031 147.480469 C 341.855469 147.585938 341.589844 147.496094 341.472656 147.277344 C 341.464844 147.265625 341.453125 147.253906 341.445312 147.242188 C 339.882812 144.800781 337.636719 143.375 335.21875 142.996094 C 332.789062 142.617188 330.1875 143.300781 327.941406 145.054688 C 327.34375 145.515625 326.710938 146.109375 326.25 146.777344 C 325.957031 147.199219 325.734375 147.648438 325.652344 148.113281 " fill-opacity="1" fill-rule="evenodd"/></g><path fill="#ffffff" d="M 332.804688 209.097656 C 333.699219 209.019531 334.953125 208.644531 335.472656 208.683594 C 335.738281 208.703125 336 209.082031 335.933594 209.339844 C 335.828125 209.738281 335.402344 210.722656 334.855469 211.0625 C 334.667969 211.179688 334.011719 211.589844 333.226562 211.664062 C 332.363281 211.746094 331.363281 211.484375 331.136719 211.394531 C 330.539062 211.160156 329.941406 210.265625 329.769531 209.894531 C 329.660156 209.652344 329.847656 209.234375 330.105469 209.167969 C 330.613281 209.035156 331.910156 209.179688 332.804688 209.097656 " fill-opacity="1" fill-rule="evenodd"/><path fill="#ffffff" d="M 333.15625 205.097656 C 333.015625 204.125 331.726562 203.640625 331.667969 205.035156 C 331.613281 206.347656 332.871094 207.695312 333.164062 205.960938 L 333.15625 205.097656 " fill-opacity="1" fill-rule="evenodd"/><path fill="#ffffff" d="M 345.578125 201.746094 C 346.785156 201.640625 347.828125 202.207031 347.898438 203.015625 C 347.972656 203.820312 347.050781 204.566406 345.839844 204.675781 C 344.628906 204.785156 343.585938 204.214844 343.515625 203.40625 C 343.441406 202.601562 344.367188 201.855469 345.578125 201.746094 " fill-opacity="1" fill-rule="evenodd"/><path fill="#ffffff" d="M 318.847656 204.148438 C 320.058594 204.039062 321.101562 204.609375 321.171875 205.414062 C 321.246094 206.222656 320.320312 206.96875 319.113281 207.078125 C 317.902344 207.183594 316.859375 206.617188 316.789062 205.808594 C 316.714844 205 317.636719 204.257812 318.847656 204.148438 " fill-opacity="1" fill-rule="evenodd"/><path fill="#ffffff" d="M 323.886719 199.636719 C 324.820312 199.636719 325.578125 200.53125 325.578125 201.636719 C 325.578125 202.167969 325.402344 202.648438 325.113281 203.007812 C 324.804688 203.394531 324.371094 203.632812 323.886719 203.632812 C 323.449219 203.632812 323.050781 203.4375 322.75 203.113281 C 322.410156 202.75 322.195312 202.222656 322.195312 201.636719 C 322.195312 200.53125 322.953125 199.636719 323.886719 199.636719 " fill-opacity="1" fill-rule="evenodd"/><path fill="#ffffff" d="M 339.886719 198.570312 C 340.820312 198.570312 341.578125 199.464844 341.578125 200.570312 C 341.578125 201.671875 340.820312 202.570312 339.886719 202.570312 C 338.953125 202.570312 338.195312 201.671875 338.195312 200.570312 C 338.195312 199.464844 338.953125 198.570312 339.886719 198.570312 " fill-opacity="1" fill-rule="evenodd"/><g fill="#ffffff" fill-opacity="1"><g transform="translate(0.0000045, 198.780176)"><g><path d="M 1.671875 -0.5 L 3.671875 -1 L 3.671875 -22.359375 L 1.671875 -22.859375 L 1.671875 -23.359375 L 19.53125 -23.359375 L 19.53125 -17.359375 L 18.515625 -17.359375 C 18.097656 -17.691406 17.734375 -18.113281 17.421875 -18.625 C 16.710938 -19.820312 16.359375 -21.125 16.359375 -22.53125 L 9.171875 -22.53125 L 9.171875 -12.015625 L 13.015625 -12.015625 C 13.171875 -12.859375 13.460938 -13.648438 13.890625 -14.390625 C 14.066406 -14.722656 14.273438 -15.046875 14.515625 -15.359375 L 15.515625 -15.359375 L 15.515625 -7.84375 L 14.515625 -7.84375 C 14.273438 -8.15625 14.066406 -8.476562 13.890625 -8.8125 C 13.460938 -9.539062 13.171875 -10.332031 13.015625 -11.1875 L 9.171875 -11.1875 L 9.171875 -0.828125 L 17.015625 -0.828125 C 17.015625 -2.234375 17.375 -3.535156 18.09375 -4.734375 C 18.40625 -5.242188 18.769531 -5.664062 19.1875 -6 L 20.1875 -6 L 20.1875 0 L 1.671875 0 Z M 1.671875 -0.5 "/></g></g></g><g fill="#ffffff" fill-opacity="1"><g transform="translate(21.524019, 198.780176)"><g><path d="M 1.328125 -0.5 L 3.34375 -1 L 3.34375 -22.359375 L 1.328125 -22.859375 L 1.328125 -23.359375 L 5.671875 -23.359375 C 7.671875 -23.359375 8.671875 -22.359375 8.671875 -20.359375 L 8.671875 -8.671875 L 14.859375 -15.1875 L 12.34375 -16.1875 L 12.34375 -16.6875 L 18.6875 -16.6875 L 18.6875 -16.1875 L 16.015625 -15.1875 L 12.1875 -11.1875 L 18.6875 -1 L 20.359375 -0.5 L 20.359375 0 L 16.015625 0 C 14.953125 0 14.085938 -0.234375 13.421875 -0.703125 C 12.753906 -1.171875 12.117188 -1.882812 11.515625 -2.84375 L 8.671875 -7.34375 L 8.671875 -1 L 10.6875 -0.5 L 10.6875 0 L 1.328125 0 Z M 1.328125 -0.5 "/></g></g></g><g fill="#ffffff" fill-opacity="1"><g transform="translate(41.546351, 198.780176)"><g><path d="M 9.171875 0.5 C 7.796875 0.5 6.5625 0.195312 5.46875 -0.40625 C 4.9375 -0.6875 4.503906 -0.992188 4.171875 -1.328125 C 3.816406 -0.835938 3.425781 -0.460938 3 -0.203125 C 2.800781 -0.0664062 2.582031 0.0546875 2.34375 0.171875 L 1.5 0.171875 L 1.5 -5.5 L 2.84375 -5.5 C 3.125 -4.570312 3.546875 -3.707031 4.109375 -2.90625 C 5.285156 -1.1875 6.753906 -0.328125 8.515625 -0.328125 C 9.441406 -0.328125 10.144531 -0.554688 10.625 -1.015625 C 11.101562 -1.472656 11.34375 -2.132812 11.34375 -3 C 11.34375 -3.738281 11.015625 -4.359375 10.359375 -4.859375 C 9.703125 -5.359375 8.675781 -5.972656 7.28125 -6.703125 C 6.070312 -7.304688 5.09375 -7.847656 4.34375 -8.328125 C 3.601562 -8.804688 2.972656 -9.40625 2.453125 -10.125 C 1.929688 -10.851562 1.671875 -11.707031 1.671875 -12.6875 C 1.671875 -14.019531 2.242188 -15.101562 3.390625 -15.9375 C 4.535156 -16.769531 6.296875 -17.1875 8.671875 -17.1875 C 9.859375 -17.1875 10.953125 -16.875 11.953125 -16.25 C 12.441406 -15.957031 12.863281 -15.660156 13.21875 -15.359375 C 13.507812 -15.753906 13.898438 -16.128906 14.390625 -16.484375 C 14.765625 -16.710938 14.984375 -16.835938 15.046875 -16.859375 L 15.890625 -16.859375 L 15.890625 -11.1875 L 14.546875 -11.1875 C 14.210938 -12.132812 13.800781 -12.988281 13.3125 -13.75 C 12.195312 -15.488281 10.875 -16.359375 9.34375 -16.359375 C 8.738281 -16.359375 8.222656 -16.132812 7.796875 -15.6875 C 7.378906 -15.238281 7.171875 -14.679688 7.171875 -14.015625 C 7.171875 -13.171875 7.523438 -12.460938 8.234375 -11.890625 C 8.953125 -11.328125 10.035156 -10.679688 11.484375 -9.953125 C 12.660156 -9.347656 13.597656 -8.816406 14.296875 -8.359375 C 15.003906 -7.898438 15.609375 -7.335938 16.109375 -6.671875 C 16.609375 -6.003906 16.859375 -5.226562 16.859375 -4.34375 C 16.859375 -1.113281 14.296875 0.5 9.171875 0.5 Z M 9.171875 0.5 "/></g></g></g><g fill="#ffffff" fill-opacity="1"><g transform="translate(59.566458, 198.780176)"><g><path d="M 10.015625 0.5 C 8.546875 0.5 7.269531 0.234375 6.1875 -0.296875 C 5.113281 -0.828125 4.285156 -1.5625 3.703125 -2.5 C 3.128906 -3.4375 2.84375 -4.492188 2.84375 -5.671875 L 2.84375 -15.859375 L 0.5 -15.859375 L 0.5 -16.6875 L 2.84375 -16.6875 L 2.84375 -18.359375 C 2.84375 -20.359375 3.84375 -21.359375 5.84375 -21.359375 L 8.171875 -21.359375 L 8.171875 -16.6875 L 12.84375 -16.6875 L 12.84375 -15.859375 L 8.171875 -15.859375 L 8.171875 -5.671875 C 8.171875 -3.628906 8.378906 -2.226562 8.796875 -1.46875 C 9.222656 -0.707031 9.851562 -0.328125 10.6875 -0.328125 C 11.476562 -0.328125 12.175781 -0.71875 12.78125 -1.5 C 13.382812 -2.28125 13.6875 -3.335938 13.6875 -4.671875 L 14.515625 -4.671875 C 14.515625 -3.023438 14.101562 -1.75 13.28125 -0.84375 C 12.457031 0.0507812 11.367188 0.5 10.015625 0.5 Z M 10.015625 0.5 "/></g></g></g><g fill="#ffffff" fill-opacity="1"><g transform="translate(74.583214, 198.780176)"><g><path d="M 1.328125 -0.5 L 3.34375 -1 L 3.34375 -15.6875 L 1.328125 -16.1875 L 1.328125 -16.6875 L 4.34375 -16.6875 C 5.65625 -16.6875 6.6875 -16.265625 7.4375 -15.421875 C 7.726562 -15.085938 7.972656 -14.675781 8.171875 -14.1875 C 8.503906 -14.675781 8.914062 -15.117188 9.40625 -15.515625 C 10.519531 -16.410156 11.769531 -16.859375 13.15625 -16.859375 C 14.332031 -16.859375 15.210938 -16.582031 15.796875 -16.03125 C 16.390625 -15.488281 16.6875 -14.707031 16.6875 -13.6875 C 16.6875 -12.925781 16.457031 -12.316406 16 -11.859375 C 15.539062 -11.410156 14.9375 -11.1875 14.1875 -11.1875 C 13.875 -11.1875 13.5625 -11.207031 13.25 -11.25 L 12.84375 -11.34375 L 12.84375 -16.015625 C 11.707031 -16.015625 10.675781 -15.570312 9.75 -14.6875 C 9.300781 -14.238281 8.941406 -13.789062 8.671875 -13.34375 L 8.671875 -1 L 10.6875 -0.5 L 10.6875 0 L 1.328125 0 Z M 1.328125 -0.5 "/></g></g></g><g fill="#ffffff" fill-opacity="1"><g transform="translate(91.435352, 198.780176)"><g><path d="M 10.171875 0.5 C 7.421875 0.5 5.257812 -0.28125 3.6875 -1.84375 C 2.113281 -3.414062 1.328125 -5.582031 1.328125 -8.34375 C 1.328125 -11.101562 2.113281 -13.265625 3.6875 -14.828125 C 5.257812 -16.398438 7.421875 -17.1875 10.171875 -17.1875 C 12.929688 -17.1875 15.097656 -16.398438 16.671875 -14.828125 C 18.242188 -13.265625 19.03125 -11.101562 19.03125 -8.34375 C 19.03125 -5.582031 18.242188 -3.414062 16.671875 -1.84375 C 15.097656 -0.28125 12.929688 0.5 10.171875 0.5 Z M 10.171875 -0.171875 C 11.066406 -0.171875 11.816406 -0.789062 12.421875 -2.03125 C 13.035156 -3.28125 13.34375 -5.382812 13.34375 -8.34375 C 13.34375 -11.300781 13.035156 -13.398438 12.421875 -14.640625 C 11.816406 -15.890625 11.066406 -16.515625 10.171875 -16.515625 C 9.285156 -16.515625 8.535156 -15.890625 7.921875 -14.640625 C 7.316406 -13.398438 7.015625 -11.300781 7.015625 -8.34375 C 7.015625 -5.382812 7.316406 -3.28125 7.921875 -2.03125 C 8.535156 -0.789062 9.285156 -0.171875 10.171875 -0.171875 Z M 7.078125 -18.6875 C 6.410156 -18.6875 5.851562 -18.910156 5.40625 -19.359375 C 4.957031 -19.804688 4.734375 -20.363281 4.734375 -21.03125 C 4.734375 -21.695312 4.957031 -22.25 5.40625 -22.6875 C 5.851562 -23.132812 6.410156 -23.359375 7.078125 -23.359375 C 7.742188 -23.359375 8.296875 -23.132812 8.734375 -22.6875 C 9.179688 -22.25 9.40625 -21.695312 9.40625 -21.03125 C 9.40625 -20.363281 9.179688 -19.804688 8.734375 -19.359375 C 8.296875 -18.910156 7.742188 -18.6875 7.078125 -18.6875 Z M 13.25 -18.6875 C 12.582031 -18.6875 12.023438 -18.910156 11.578125 -19.359375 C 11.128906 -19.804688 10.90625 -20.363281 10.90625 -21.03125 C 10.90625 -21.695312 11.128906 -22.25 11.578125 -22.6875 C 12.023438 -23.132812 12.582031 -23.359375 13.25 -23.359375 C 13.914062 -23.359375 14.46875 -23.132812 14.90625 -22.6875 C 15.351562 -22.25 15.578125 -21.695312 15.578125 -21.03125 C 15.578125 -20.363281 15.351562 -19.804688 14.90625 -19.359375 C 14.46875 -18.910156 13.914062 -18.6875 13.25 -18.6875 Z M 13.25 -18.6875 "/></g></g></g><g fill="#ffffff" fill-opacity="1"><g transform="translate(111.791397, 198.780176)"><g><path d="M 1.328125 -0.5 L 3.34375 -1 L 3.34375 -15.6875 L 1.328125 -16.1875 L 1.328125 -16.6875 L 4.34375 -16.6875 C 5.65625 -16.6875 6.6875 -16.265625 7.4375 -15.421875 C 7.726562 -15.085938 7.972656 -14.675781 8.171875 -14.1875 C 8.503906 -14.8125 8.863281 -15.3125 9.25 -15.6875 C 10.25 -16.6875 11.394531 -17.1875 12.6875 -17.1875 C 13.976562 -17.1875 15.113281 -16.898438 16.09375 -16.328125 C 17.070312 -15.765625 17.828125 -14.992188 18.359375 -14.015625 C 18.691406 -14.660156 19.046875 -15.1875 19.421875 -15.59375 C 20.441406 -16.65625 21.585938 -17.1875 22.859375 -17.1875 C 24.035156 -17.1875 25.097656 -16.941406 26.046875 -16.453125 C 26.992188 -15.960938 27.726562 -15.296875 28.25 -14.453125 C 28.769531 -13.609375 29.03125 -12.6875 29.03125 -11.6875 L 29.03125 -1 L 31.03125 -0.5 L 31.03125 0 L 26.703125 0 C 24.703125 0 23.703125 -1 23.703125 -3 L 23.703125 -11.6875 C 23.703125 -13.125 23.476562 -14.203125 23.03125 -14.921875 C 22.582031 -15.648438 22.082031 -16.015625 21.53125 -16.015625 C 20.882812 -16.015625 20.226562 -15.570312 19.5625 -14.6875 C 19.289062 -14.257812 19.054688 -13.8125 18.859375 -13.34375 L 18.859375 -1 L 20.859375 -0.5 L 20.859375 0 L 11.515625 0 L 11.515625 -0.5 L 13.515625 -1 L 13.515625 -11.6875 C 13.515625 -13.125 13.289062 -14.203125 12.84375 -14.921875 C 12.40625 -15.648438 11.90625 -16.015625 11.34375 -16.015625 C 10.695312 -16.015625 10.039062 -15.570312 9.375 -14.6875 C 9.113281 -14.257812 8.878906 -13.8125 8.671875 -13.34375 L 8.671875 -1 L 10.6875 -0.5 L 10.6875 0 L 1.328125 0 Z M 1.328125 -0.5 "/></g></g></g><g fill="#ffffff" fill-opacity="1"><g transform="translate(143.493433, 198.780176)"><g><path d="M 9.171875 0.5 C 7.796875 0.5 6.5625 0.195312 5.46875 -0.40625 C 4.9375 -0.6875 4.503906 -0.992188 4.171875 -1.328125 C 3.816406 -0.835938 3.425781 -0.460938 3 -0.203125 C 2.800781 -0.0664062 2.582031 0.0546875 2.34375 0.171875 L 1.5 0.171875 L 1.5 -5.5 L 2.84375 -5.5 C 3.125 -4.570312 3.546875 -3.707031 4.109375 -2.90625 C 5.285156 -1.1875 6.753906 -0.328125 8.515625 -0.328125 C 9.441406 -0.328125 10.144531 -0.554688 10.625 -1.015625 C 11.101562 -1.472656 11.34375 -2.132812 11.34375 -3 C 11.34375 -3.738281 11.015625 -4.359375 10.359375 -4.859375 C 9.703125 -5.359375 8.675781 -5.972656 7.28125 -6.703125 C 6.070312 -7.304688 5.09375 -7.847656 4.34375 -8.328125 C 3.601562 -8.804688 2.972656 -9.40625 2.453125 -10.125 C 1.929688 -10.851562 1.671875 -11.707031 1.671875 -12.6875 C 1.671875 -14.019531 2.242188 -15.101562 3.390625 -15.9375 C 4.535156 -16.769531 6.296875 -17.1875 8.671875 -17.1875 C 9.859375 -17.1875 10.953125 -16.875 11.953125 -16.25 C 12.441406 -15.957031 12.863281 -15.660156 13.21875 -15.359375 C 13.507812 -15.753906 13.898438 -16.128906 14.390625 -16.484375 C 14.765625 -16.710938 14.984375 -16.835938 15.046875 -16.859375 L 15.890625 -16.859375 L 15.890625 -11.1875 L 14.546875 -11.1875 C 14.210938 -12.132812 13.800781 -12.988281 13.3125 -13.75 C 12.195312 -15.488281 10.875 -16.359375 9.34375 -16.359375 C 8.738281 -16.359375 8.222656 -16.132812 7.796875 -15.6875 C 7.378906 -15.238281 7.171875 -14.679688 7.171875 -14.015625 C 7.171875 -13.171875 7.523438 -12.460938 8.234375 -11.890625 C 8.953125 -11.328125 10.035156 -10.679688 11.484375 -9.953125 C 12.660156 -9.347656 13.597656 -8.816406 14.296875 -8.359375 C 15.003906 -7.898438 15.609375 -7.335938 16.109375 -6.671875 C 16.609375 -6.003906 16.859375 -5.226562 16.859375 -4.34375 C 16.859375 -1.113281 14.296875 0.5 9.171875 0.5 Z M 9.171875 0.5 "/></g></g></g><g fill="#ffffff" fill-opacity="1"><g transform="translate(161.513541, 198.780176)"><g/></g></g><g fill="#ffffff" fill-opacity="1"><g transform="translate(170.857294, 198.780176)"><g><path d="M 4.671875 -19.1875 L 4.671875 -1.5 L 7.34375 -0.5 L 7.34375 0 L 1 0 L 1 -0.5 L 3.671875 -1.5 L 3.671875 -22.359375 L 1.671875 -22.859375 L 1.671875 -23.359375 L 5.84375 -23.359375 C 7 -23.359375 7.914062 -23.117188 8.59375 -22.640625 C 9.269531 -22.160156 9.851562 -21.457031 10.34375 -20.53125 L 17.625 -6.609375 L 23.203125 -20.53125 C 23.578125 -21.507812 24.085938 -22.222656 24.734375 -22.671875 C 25.378906 -23.128906 26.367188 -23.359375 27.703125 -23.359375 L 31.203125 -23.359375 L 31.203125 -22.859375 L 29.203125 -22.359375 L 29.203125 -1 L 31.203125 -0.5 L 31.203125 0 L 21.6875 0 L 21.6875 -0.5 L 23.703125 -1 L 23.703125 -19.1875 L 15.859375 0.328125 L 14.859375 0.328125 Z M 4.671875 -19.1875 "/></g></g></g><g fill="#ffffff" fill-opacity="1"><g transform="translate(203.7273, 198.780176)"><g><path d="M 9.34375 0.5 C 8.09375 0.5 6.972656 0.238281 5.984375 -0.28125 C 4.992188 -0.800781 4.222656 -1.484375 3.671875 -2.328125 C 3.117188 -3.179688 2.84375 -4.070312 2.84375 -5 L 2.84375 -15.6875 L 0.828125 -16.1875 L 0.828125 -16.6875 L 5.171875 -16.6875 C 7.171875 -16.6875 8.171875 -15.6875 8.171875 -13.6875 L 8.171875 -5 C 8.171875 -3.601562 8.421875 -2.53125 8.921875 -1.78125 C 9.421875 -1.039062 10.007812 -0.671875 10.6875 -0.671875 C 11.507812 -0.671875 12.253906 -1.113281 12.921875 -2 C 13.160156 -2.332031 13.414062 -2.78125 13.6875 -3.34375 L 13.6875 -15.6875 L 11.6875 -16.1875 L 11.6875 -16.6875 L 21.03125 -16.6875 L 21.03125 -16.1875 L 19.03125 -15.6875 L 19.03125 0.171875 L 18.6875 0.171875 C 17.0625 0.171875 15.828125 -0.273438 14.984375 -1.171875 C 14.609375 -1.566406 14.34375 -2.007812 14.1875 -2.5 C 13.875 -1.945312 13.503906 -1.445312 13.078125 -1 C 12.078125 0 10.832031 0.5 9.34375 0.5 Z M 9.34375 0.5 "/></g></g></g><g fill="#ffffff" fill-opacity="1"><g transform="translate(225.418171, 198.780176)"><g><path d="M 1.328125 -0.5 L 3.34375 -1 L 3.34375 -15.6875 L 1.328125 -16.1875 L 1.328125 -16.6875 L 4.34375 -16.6875 C 5.65625 -16.6875 6.6875 -16.265625 7.4375 -15.421875 C 7.726562 -15.085938 7.972656 -14.675781 8.171875 -14.1875 C 8.503906 -14.8125 8.863281 -15.3125 9.25 -15.6875 C 10.25 -16.6875 11.394531 -17.1875 12.6875 -17.1875 C 13.976562 -17.1875 15.113281 -16.898438 16.09375 -16.328125 C 17.070312 -15.765625 17.828125 -14.992188 18.359375 -14.015625 C 18.691406 -14.660156 19.046875 -15.1875 19.421875 -15.59375 C 20.441406 -16.65625 21.585938 -17.1875 22.859375 -17.1875 C 24.035156 -17.1875 25.097656 -16.941406 26.046875 -16.453125 C 26.992188 -15.960938 27.726562 -15.296875 28.25 -14.453125 C 28.769531 -13.609375 29.03125 -12.6875 29.03125 -11.6875 L 29.03125 -1 L 31.03125 -0.5 L 31.03125 0 L 26.703125 0 C 24.703125 0 23.703125 -1 23.703125 -3 L 23.703125 -11.6875 C 23.703125 -13.125 23.476562 -14.203125 23.03125 -14.921875 C 22.582031 -15.648438 22.082031 -16.015625 21.53125 -16.015625 C 20.882812 -16.015625 20.226562 -15.570312 19.5625 -14.6875 C 19.289062 -14.257812 19.054688 -13.8125 18.859375 -13.34375 L 18.859375 -1 L 20.859375 -0.5 L 20.859375 0 L 11.515625 0 L 11.515625 -0.5 L 13.515625 -1 L 13.515625 -11.6875 C 13.515625 -13.125 13.289062 -14.203125 12.84375 -14.921875 C 12.40625 -15.648438 11.90625 -16.015625 11.34375 -16.015625 C 10.695312 -16.015625 10.039062 -15.570312 9.375 -14.6875 C 9.113281 -14.257812 8.878906 -13.8125 8.671875 -13.34375 L 8.671875 -1 L 10.6875 -0.5 L 10.6875 0 L 1.328125 0 Z M 1.328125 -0.5 "/></g></g></g><g fill="#ffffff" fill-opacity="1"><g transform="translate(257.120195, 198.780176)"><g><path d="M 9.171875 0.5 C 7.796875 0.5 6.5625 0.195312 5.46875 -0.40625 C 4.9375 -0.6875 4.503906 -0.992188 4.171875 -1.328125 C 3.816406 -0.835938 3.425781 -0.460938 3 -0.203125 C 2.800781 -0.0664062 2.582031 0.0546875 2.34375 0.171875 L 1.5 0.171875 L 1.5 -5.5 L 2.84375 -5.5 C 3.125 -4.570312 3.546875 -3.707031 4.109375 -2.90625 C 5.285156 -1.1875 6.753906 -0.328125 8.515625 -0.328125 C 9.441406 -0.328125 10.144531 -0.554688 10.625 -1.015625 C 11.101562 -1.472656 11.34375 -2.132812 11.34375 -3 C 11.34375 -3.738281 11.015625 -4.359375 10.359375 -4.859375 C 9.703125 -5.359375 8.675781 -5.972656 7.28125 -6.703125 C 6.070312 -7.304688 5.09375 -7.847656 4.34375 -8.328125 C 3.601562 -8.804688 2.972656 -9.40625 2.453125 -10.125 C 1.929688 -10.851562 1.671875 -11.707031 1.671875 -12.6875 C 1.671875 -14.019531 2.242188 -15.101562 3.390625 -15.9375 C 4.535156 -16.769531 6.296875 -17.1875 8.671875 -17.1875 C 9.859375 -17.1875 10.953125 -16.875 11.953125 -16.25 C 12.441406 -15.957031 12.863281 -15.660156 13.21875 -15.359375 C 13.507812 -15.753906 13.898438 -16.128906 14.390625 -16.484375 C 14.765625 -16.710938 14.984375 -16.835938 15.046875 -16.859375 L 15.890625 -16.859375 L 15.890625 -11.1875 L 14.546875 -11.1875 C 14.210938 -12.132812 13.800781 -12.988281 13.3125 -13.75 C 12.195312 -15.488281 10.875 -16.359375 9.34375 -16.359375 C 8.738281 -16.359375 8.222656 -16.132812 7.796875 -15.6875 C 7.378906 -15.238281 7.171875 -14.679688 7.171875 -14.015625 C 7.171875 -13.171875 7.523438 -12.460938 8.234375 -11.890625 C 8.953125 -11.328125 10.035156 -10.679688 11.484375 -9.953125 C 12.660156 -9.347656 13.597656 -8.816406 14.296875 -8.359375 C 15.003906 -7.898438 15.609375 -7.335938 16.109375 -6.671875 C 16.609375 -6.003906 16.859375 -5.226562 16.859375 -4.34375 C 16.859375 -1.113281 14.296875 0.5 9.171875 0.5 Z M 9.171875 0.5 "/></g></g></g></svg>