<svg xmlns="http://www.w3.org/2000/svg" xmlns:xlink="http://www.w3.org/1999/xlink" zoomAndPan="magnify" preserveAspectRatio="xMidYMid meet" version="1.0" viewBox="47.38 55.41 280.99 195.47"><defs><g/><clipPath id="4305f4352a"><path d="M 116 55.40625 L 262.871094 55.40625 L 262.871094 221.15625 L 116 221.15625 Z M 116 55.40625 " clip-rule="nonzero"/></clipPath></defs><path fill="#e5271d" d="M 245.636719 102.621094 C 245.480469 101.421875 244.09375 99.976562 242.988281 100.894531 C 241.28125 102.316406 242.789062 107.175781 242.789062 107.175781 C 245.617188 108.128906 247.5625 106.5 248.171875 104.886719 C 248.769531 103.289062 248.070312 101.707031 245.636719 102.621094 " fill-opacity="1" fill-rule="evenodd"/><path fill="#e5271d" d="M 118.265625 187.355469 C 119.664062 188.992188 126.410156 188.453125 126.410156 188.453125 C 126.109375 186.191406 125.554688 182.921875 123.664062 181.414062 C 122.746094 180.679688 120.515625 180.917969 120.632812 182.464844 C 120.675781 183.027344 120.949219 183.527344 121.300781 183.988281 C 120.53125 183.816406 119.699219 183.8125 119 184.050781 C 117.542969 184.542969 117.324219 186.25 118.265625 187.355469 " fill-opacity="1" fill-rule="evenodd"/><path fill="#e5271d" d="M 256 191.722656 C 256 191.722656 255.429688 190.460938 254.789062 189.71875 C 253.433594 188.160156 251.386719 188.855469 250.835938 190.710938 C 249.90625 193.851562 253.519531 198.289062 253.519531 198.289062 C 255.898438 197.941406 258.007812 197.386719 260.070312 196.09375 C 261.132812 195.429688 262.0625 194.433594 261.996094 193.097656 C 261.828125 189.761719 257.636719 189.15625 256 191.722656 " fill-opacity="1" fill-rule="evenodd"/><path fill="#e5271d" d="M 121.585938 122.503906 C 121.535156 121.785156 121.542969 121.070312 121.542969 120.492188 C 121.542969 120.210938 121.761719 119.976562 122.042969 119.957031 C 122.324219 119.933594 122.574219 120.136719 122.613281 120.414062 C 122.699219 120.976562 122.730469 121.726562 122.667969 122.503906 C 122.691406 122.808594 122.730469 123.113281 122.785156 123.40625 C 122.890625 123.980469 123.066406 124.511719 123.390625 124.882812 C 123.792969 125.339844 124.464844 125.441406 125.042969 125.515625 C 125.105469 125.523438 125.648438 125.558594 125.847656 125.644531 C 126.207031 125.804688 126.265625 126.09375 126.210938 126.328125 C 126.191406 126.410156 126.148438 126.503906 126.066406 126.597656 C 126.007812 126.660156 125.871094 126.757812 125.660156 126.863281 C 125.371094 127.003906 124.871094 127.222656 124.398438 127.566406 C 123.988281 127.867188 123.59375 128.273438 123.445312 128.839844 C 123.339844 129.226562 123.265625 130.363281 123.144531 131.109375 C 123.070312 131.570312 122.941406 131.914062 122.832031 132.046875 C 122.6875 132.222656 122.527344 132.246094 122.417969 132.25 C 122.269531 132.253906 122.132812 132.207031 122.011719 132.085938 C 121.957031 132.035156 121.890625 131.945312 121.855469 131.808594 C 121.839844 131.738281 121.832031 131.59375 121.824219 131.527344 C 121.773438 131.144531 121.742188 130.761719 121.707031 130.378906 C 121.625 129.539062 121.617188 128.425781 121.085938 127.71875 C 120.910156 127.484375 120.652344 127.472656 120.394531 127.472656 C 120.105469 127.476562 119.808594 127.511719 119.527344 127.511719 C 119.445312 127.511719 118.445312 127.484375 118.257812 127.457031 C 117.898438 127.40625 117.808594 127.128906 117.792969 127.078125 C 117.746094 126.941406 117.757812 126.800781 117.828125 126.664062 C 117.867188 126.589844 118.023438 126.417969 118.3125 126.273438 C 118.859375 125.996094 120.132812 125.519531 120.390625 125.367188 C 120.871094 125.082031 121.15625 124.507812 121.34375 123.859375 C 121.46875 123.429688 121.546875 122.960938 121.585938 122.503906 Z M 122.117188 124.878906 C 121.839844 125.488281 121.449219 125.992188 120.941406 126.292969 C 120.898438 126.320312 120.820312 126.359375 120.71875 126.410156 C 121.1875 126.453125 121.617188 126.628906 121.949219 127.070312 C 122.207031 127.414062 122.375 127.835938 122.492188 128.277344 C 122.785156 127.507812 123.371094 126.949219 123.96875 126.550781 C 124.023438 126.515625 124.078125 126.480469 124.136719 126.445312 C 123.550781 126.300781 122.980469 126.046875 122.582031 125.597656 C 122.398438 125.390625 122.246094 125.144531 122.117188 124.878906 " fill-opacity="1" fill-rule="evenodd"/><path fill="#e5271d" d="M 239.871094 131.679688 C 239.894531 130.679688 240 129.699219 240.078125 128.90625 C 240.105469 128.625 240.347656 128.414062 240.628906 128.417969 C 240.910156 128.425781 241.140625 128.652344 241.152344 128.933594 C 241.191406 129.710938 241.132812 130.734375 240.945312 131.785156 C 240.9375 132.214844 240.945312 132.652344 240.984375 133.074219 C 241.058594 133.917969 241.238281 134.707031 241.652344 135.285156 C 242.171875 136.003906 243.128906 136.265625 243.957031 136.457031 C 244.039062 136.476562 244.746094 136.582031 244.992188 136.722656 C 245.347656 136.921875 245.386719 137.226562 245.304688 137.464844 C 245.277344 137.546875 245.222656 137.640625 245.128906 137.726562 C 245.046875 137.796875 244.867188 137.898438 244.601562 138 C 244.175781 138.15625 243.445312 138.390625 242.742188 138.8125 C 242.101562 139.191406 241.46875 139.730469 241.167969 140.535156 C 240.972656 141.058594 240.714844 142.617188 240.445312 143.636719 C 240.292969 144.207031 240.097656 144.632812 239.945312 144.78125 C 239.78125 144.945312 239.617188 144.957031 239.503906 144.949219 C 239.359375 144.941406 239.222656 144.878906 239.113281 144.746094 C 239.0625 144.6875 239.003906 144.585938 238.984375 144.441406 C 238.96875 144.347656 238.980469 144.164062 238.976562 144.074219 C 238.960938 143.546875 238.96875 143.019531 238.972656 142.492188 C 238.976562 141.289062 239.101562 139.71875 238.449219 138.644531 C 238.25 138.316406 237.949219 138.203125 237.621094 138.144531 C 237.15625 138.070312 236.648438 138.101562 236.183594 138.054688 C 236.066406 138.042969 234.722656 137.871094 234.472656 137.8125 C 234.113281 137.722656 234.046875 137.4375 234.035156 137.382812 C 234.003906 137.242188 234.027344 137.105469 234.109375 136.976562 C 234.167969 136.894531 234.375 136.71875 234.734375 136.582031 C 235.523438 136.273438 237.347656 135.789062 237.722656 135.613281 C 238.464844 135.261719 238.972656 134.476562 239.339844 133.558594 C 239.578125 132.96875 239.75 132.320312 239.871094 131.679688 Z M 240.125 134.453125 C 239.65625 135.417969 239.011719 136.199219 238.179688 136.589844 C 238 136.675781 237.46875 136.835938 236.882812 137.011719 C 237.191406 137.023438 237.503906 137.03125 237.800781 137.082031 C 238.429688 137.1875 238.984375 137.449219 239.371094 138.085938 C 239.804688 138.804688 239.964844 139.710938 240.023438 140.617188 C 240.070312 140.425781 240.117188 140.269531 240.160156 140.15625 C 240.601562 138.980469 241.550781 138.214844 242.488281 137.714844 C 242.714844 137.597656 242.960938 137.480469 243.199219 137.378906 C 242.277344 137.117188 241.34375 136.699219 240.777344 135.917969 C 240.480469 135.5 240.265625 135.003906 240.125 134.453125 " fill-opacity="1" fill-rule="evenodd"/><g clip-path="url(#4305f4352a)"><path fill="#000000" d="M 174.511719 193.960938 C 174.496094 193.957031 174.480469 193.953125 174.464844 193.949219 C 169.683594 192.644531 162.789062 189.792969 157.78125 183.484375 C 156.34375 181.675781 154.941406 179.378906 153.675781 176.886719 C 153.738281 176.828125 153.632812 176.800781 153.675781 176.886719 C 153.582031 176.964844 153.46875 177.027344 153.339844 177.0625 C 151.347656 177.617188 147.078125 176.730469 145.246094 176 C 142.265625 174.816406 140.503906 172.988281 139.617188 171.007812 C 138.273438 167.996094 138.964844 164.578125 140.683594 162.269531 C 140.953125 161.910156 141.242188 161.578125 141.554688 161.277344 C 138.691406 153.96875 137.503906 147.679688 138.269531 141.1875 C 137.800781 141.269531 137.117188 141.363281 137.121094 141.328125 C 136.878906 141.328125 136.613281 141.246094 136.359375 141.015625 C 136.148438 140.824219 135.902344 140.457031 135.683594 139.964844 C 135.074219 138.59375 134.464844 136.054688 134.3125 135.558594 C 133.683594 133.5 132.605469 131.847656 132.449219 130.265625 C 132.328125 128.984375 132.691406 127.71875 134.160156 126.371094 C 134.589844 125.976562 135.933594 124.878906 138.355469 123.539062 C 138.359375 123.511719 138.367188 123.480469 138.378906 123.453125 C 139.402344 120.140625 140.777344 117.113281 142.453125 114.289062 C 141.933594 114.433594 141.398438 114.554688 140.859375 114.65625 C 138.996094 115.011719 137.042969 115.140625 135.296875 115.277344 C 118.585938 116.570312 112.226562 97.9375 118.445312 81.546875 C 123.039062 69.441406 134.449219 58.621094 153.433594 58.433594 C 158.699219 58.386719 163.445312 59.488281 167.480469 61.773438 C 169.300781 62.808594 170.980469 64.082031 172.496094 65.601562 C 172.746094 64.945312 173.097656 64.300781 173.519531 63.691406 C 174.449219 62.347656 175.722656 61.144531 176.921875 60.207031 C 181.378906 56.730469 186.542969 55.40625 191.363281 56.160156 C 196.007812 56.882812 200.347656 59.535156 203.445312 64.09375 C 205.464844 63.242188 207.65625 62.664062 209.886719 62.292969 C 212.339844 61.886719 214.84375 61.734375 217.210938 61.75 C 218.917969 61.757812 220.667969 61.882812 222.363281 62.226562 C 224.101562 62.578125 225.78125 63.160156 227.304688 64.070312 C 228.820312 64.972656 230.140625 66.121094 231.308594 67.417969 C 233.019531 69.3125 234.40625 71.53125 235.609375 73.757812 C 239.984375 81.847656 240.914062 90.628906 238.25 97.398438 C 235.796875 103.644531 230.3125 108.238281 221.585938 109.050781 C 221.601562 109.113281 221.613281 109.171875 221.621094 109.234375 C 221.726562 109.804688 221.761719 110.40625 221.847656 110.972656 C 224.367188 111.308594 225.535156 112.132812 226.144531 113.394531 C 226.785156 114.726562 226.730469 116.730469 226.882812 119.617188 C 226.90625 120.078125 227.183594 122.871094 227.167969 124.515625 C 227.160156 125.167969 227.085938 126.558594 226.988281 126.796875 C 226.980469 126.816406 226.976562 126.828125 226.96875 126.84375 C 226.96875 126.84375 225.878906 126.679688 224.613281 126.484375 C 227.238281 132.980469 227.070312 140.441406 226.507812 147.167969 C 227.570312 147.464844 228.585938 148.0625 229.46875 148.878906 C 231.582031 150.835938 232.882812 154.070312 232.109375 157.28125 C 231.601562 159.390625 230.199219 161.503906 227.484375 163.214844 C 225.941406 164.183594 223.609375 165.222656 221.640625 165.234375 C 221.363281 167.261719 220.886719 169.21875 220.144531 171.011719 C 217.796875 176.6875 214.703125 180.90625 211.382812 184.082031 C 211.394531 184.121094 211.40625 184.164062 211.410156 184.210938 C 211.492188 185.113281 211.707031 185.753906 212.039062 186.21875 C 212.539062 186.914062 213.292969 187.203125 214.152344 187.476562 C 215.863281 188.015625 217.960938 188.4375 219.8125 190.582031 C 221.320312 192.328125 222.929688 194.664062 223.152344 197.796875 C 223.300781 199.875 222.84375 202.3125 221.3125 205.167969 C 221.261719 205.261719 221.1875 205.332031 221.101562 205.382812 C 221.441406 205.75 221.765625 206.125 222.066406 206.515625 L 222.957031 204.839844 C 222.957031 204.839844 223.996094 203.035156 224.285156 202.5 C 224.503906 202.101562 227.0625 197.328125 227.695312 196.128906 C 227.238281 195.210938 226.929688 194.5625 226.871094 194.378906 C 226.75 193.992188 226.808594 193.367188 227.09375 192.757812 C 227.34375 192.222656 227.746094 191.714844 228.105469 191.402344 C 229.039062 190.890625 228.601562 190.4375 228.820312 189.527344 C 229.089844 189.128906 229.414062 188.789062 229.691406 188.59375 C 229.679688 188.234375 229.769531 187.789062 229.972656 187.355469 C 230.324219 186.59375 230.988281 185.894531 231.394531 185.71875 C 231.40625 185.460938 231.464844 185.171875 231.570312 184.875 C 232.6875 182.808594 234.523438 183.007812 234.523438 183.007812 C 234.523438 183.007812 236.976562 178.5625 237.320312 177.90625 C 237.453125 177.65625 239.160156 174.417969 239.347656 174.0625 C 239.253906 173.949219 239.183594 173.820312 239.144531 173.679688 C 239.070312 173.402344 239.117188 173.109375 239.269531 172.871094 C 239.269531 172.871094 240.015625 171.757812 240.308594 171.019531 C 239.984375 170.828125 239.722656 170.664062 239.546875 170.53125 C 238.609375 169.839844 237.941406 169.03125 237.765625 168.277344 C 237.59375 167.5625 237.730469 166.578125 238.085938 165.511719 C 238.09375 165.492188 243.257812 154.652344 243.101562 155.136719 C 243.675781 154.097656 244.304688 153.046875 244.96875 152.089844 C 246.308594 150.160156 247.816406 148.609375 249.292969 148.039062 C 251.199219 147.296875 253.507812 147.535156 255.488281 147.738281 C 257.792969 147.972656 259.9375 148.375 261.679688 150.039062 C 262.140625 150.476562 262.546875 151.03125 262.652344 151.675781 C 262.761719 152.339844 262.617188 153.242188 262.28125 154.230469 C 261.628906 156.152344 260.285156 158.476562 259.683594 159.585938 C 258.285156 162.167969 256.828125 164.742188 255.507812 167.367188 C 254.507812 169.359375 253.640625 171.183594 252.660156 172.492188 C 251.894531 173.515625 251.046875 174.242188 250.074219 174.597656 C 249.523438 174.796875 248.234375 174.488281 246.730469 173.953125 C 246.652344 174.078125 246.582031 174.253906 246.496094 174.425781 C 246.292969 174.835938 246.078125 175.273438 245.832031 175.605469 C 245.464844 176.097656 245.011719 176.394531 244.515625 176.457031 C 244.300781 176.484375 244.011719 176.453125 243.679688 176.367188 C 242.832031 178.082031 241.269531 181.207031 240.203125 183.183594 C 239.664062 184.179688 239.128906 185.179688 238.59375 186.175781 C 239.28125 186.988281 239.855469 187.816406 240.183594 188.496094 C 240.660156 189.496094 241.96875 194.765625 242.523438 198.40625 C 242.789062 200.128906 242.84375 201.527344 242.675781 202.074219 C 242.605469 202.300781 242.464844 202.488281 242.277344 202.613281 C 242.21875 203.273438 242.078125 203.933594 241.847656 204.585938 L 241.503906 205.558594 C 241.589844 205.621094 241.667969 205.683594 241.734375 205.742188 C 242.160156 206.105469 242.332031 206.5 242.363281 206.738281 C 242.390625 206.929688 242.359375 207.253906 242.140625 207.605469 C 241.902344 207.992188 241.246094 208.648438 241.101562 208.8125 C 240.320312 209.691406 239.777344 211.175781 239.3125 212.289062 C 239.410156 213.152344 239.488281 214.570312 239.246094 216.226562 C 238.804688 219.238281 237.601562 223.058594 236.941406 225.160156 C 235.519531 229.683594 233.949219 234.140625 231.160156 238.027344 C 230.699219 238.664062 230.175781 239.363281 229.605469 240.03125 C 229.183594 240.574219 228.742188 241.085938 228.285156 241.550781 L 228.285156 241.554688 C 227.230469 242.628906 226.070312 243.46875 224.824219 243.957031 C 223.511719 244.472656 222.105469 244.609375 220.601562 244.226562 L 220.59375 244.226562 C 220.496094 244.199219 220.398438 244.171875 220.296875 244.144531 C 218.253906 243.53125 216.214844 241.617188 214.367188 239.070312 C 214.242188 241.292969 214.070312 243.128906 213.792969 245.933594 C 213.765625 246.191406 213.570312 248.453125 213.570312 248.453125 L 213.386719 250.238281 L 211.269531 250.875 C 211.269531 250.875 211.613281 247.824219 211.628906 247.660156 C 211.71875 246.722656 211.773438 245.945312 211.792969 245.730469 C 212.183594 241.835938 212.367188 239.832031 212.496094 235.988281 C 212.402344 235.859375 211.949219 235.222656 211.492188 234.730469 C 209.609375 232.703125 206.121094 229.46875 203.847656 225.582031 C 202.152344 222.6875 201.332031 219.773438 200.800781 217.578125 C 200.480469 216.257812 200.285156 215.226562 200.027344 214.6875 C 199.949219 214.527344 199.917969 214.347656 199.929688 214.167969 L 201.289062 198.5 C 200.816406 198.480469 199.308594 198.429688 199.230469 198.429688 L 197.90625 213.710938 C 197.894531 213.875 197.835938 214.035156 197.746094 214.175781 L 197.332031 214.808594 C 197.148438 215.089844 196.832031 215.261719 196.492188 215.261719 C 195.367188 215.261719 178.699219 215.261719 177.574219 215.261719 C 177.234375 215.261719 176.917969 215.089844 176.734375 214.808594 L 176.320312 214.175781 C 176.230469 214.035156 176.171875 213.875 176.160156 213.710938 L 174.65625 197.695312 C 174.480469 197.714844 174.292969 197.734375 174.125 197.761719 C 173.640625 197.84375 173.117188 197.9375 172.621094 198.019531 L 174.136719 214.167969 C 174.152344 214.347656 174.117188 214.527344 174.039062 214.6875 C 173.328125 216.175781 172.148438 223.320312 169.289062 227.808594 C 167.332031 230.882812 164.765625 232.996094 163.03125 234.550781 C 162.519531 235.011719 162.085938 235.417969 161.789062 235.78125 C 161.699219 235.890625 161.625 235.992188 161.570312 236.089844 C 161.554688 236.125 161.53125 236.179688 161.523438 236.199219 C 161.683594 239.371094 161.953125 242.539062 162.273438 245.730469 C 162.292969 245.941406 162.347656 246.675781 162.429688 247.570312 C 162.445312 247.761719 162.585938 249.25 162.585938 249.25 L 160.511719 248.582031 C 160.511719 248.582031 160.507812 248.542969 160.503906 248.523438 C 160.382812 247.308594 160.300781 246.195312 160.277344 245.933594 C 160.109375 244.238281 159.875 241.164062 159.691406 238.523438 C 158.765625 239.894531 157.789062 241.230469 156.78125 242.425781 C 154.527344 245.113281 152.09375 247.101562 149.808594 247.542969 L 149.65625 247.570312 C 146.578125 248.097656 144.058594 246.601562 142.082031 244.121094 C 141.835938 243.941406 141.636719 243.707031 141.464844 243.445312 C 141.277344 243.152344 141.136719 242.8125 140.953125 242.511719 C 140.453125 241.792969 140.003906 241.046875 139.613281 240.371094 C 137.222656 236.230469 136.101562 231.636719 135.140625 226.992188 C 134.695312 224.835938 133.875 220.917969 133.738281 217.875 C 133.660156 216.203125 133.878906 214.800781 134.0625 213.953125 C 133.710938 212.796875 133.320312 211.265625 132.628906 210.316406 C 132.5 210.136719 131.917969 209.417969 131.714844 209.007812 C 131.53125 208.636719 131.535156 208.3125 131.578125 208.125 C 131.636719 207.886719 131.84375 207.515625 132.304688 207.195312 C 132.371094 207.148438 132.449219 207.097656 132.53125 207.046875 L 132.285156 206.035156 C 132.101562 205.28125 132.03125 204.523438 132.0625 203.78125 C 131.996094 203.675781 131.945312 203.558594 131.917969 203.429688 C 131.808594 202.871094 131.984375 201.496094 132.386719 199.816406 C 133.238281 196.25 134.96875 191.140625 135.546875 190.191406 C 135.8125 189.757812 136.199219 189.261719 136.660156 188.757812 C 135.972656 187.460938 135.28125 186.164062 134.585938 184.867188 C 133.414062 182.675781 131.515625 178.824219 130.59375 176.949219 C 129.351562 176.839844 127.996094 176.273438 126.683594 175.390625 C 124.527344 173.941406 122.480469 171.65625 121.308594 169.539062 C 118.90625 165.1875 119.953125 160.105469 123.460938 158.164062 C 125.859375 156.839844 128.609375 157.519531 130.476562 158.347656 C 132.34375 159.171875 133.734375 161.441406 134.660156 163.117188 C 135.542969 164.710938 135.84375 166.839844 136.035156 168.402344 C 136.203125 169.761719 136.105469 170.894531 135.8125 172.5 C 135.660156 173.324219 135.429688 174.078125 135.109375 174.71875 C 135.96875 176.375 138.054688 180.394531 139.304688 182.757812 C 139.796875 183.683594 140.285156 184.609375 140.773438 185.539062 C 140.890625 185.484375 141 185.4375 141.109375 185.394531 C 141.75 185.152344 142.492188 185.070312 143.128906 185.40625 C 143.519531 185.609375 144.117188 186.382812 144.394531 187.183594 C 144.535156 187.578125 144.585938 187.972656 144.566406 188.304688 C 144.957031 188.519531 145.546875 189.285156 145.820312 190.074219 C 145.980469 190.527344 146.023438 190.980469 145.976562 191.335938 C 146.34375 191.65625 146.789062 192.292969 147.015625 192.949219 C 147.171875 193.394531 147.21875 193.835938 147.175781 194.1875 C 147.527344 194.527344 147.929688 195.125 148.144531 195.738281 C 148.367188 196.371094 148.367188 197 148.203125 197.371094 C 148.144531 197.511719 147.902344 197.921875 147.535156 198.507812 C 148.707031 200.742188 149.882812 202.96875 151.078125 205.1875 C 151.152344 205.328125 151.722656 206.390625 152.394531 207.671875 C 153.273438 206.214844 154.410156 204.929688 155.699219 203.796875 C 159.195312 200.722656 163.820312 198.777344 167.238281 197.535156 C 168.003906 197.257812 168.925781 196.953125 169.859375 196.71875 C 170.105469 196.65625 171.601562 196.324219 172.351562 196.199219 C 173.019531 196.089844 173.761719 196.050781 174.367188 195.96875 C 174.433594 195.960938 174.496094 195.953125 174.558594 195.945312 C 174.542969 195.375 174.511719 194.625 174.511719 193.960938 Z M 170.632812 198.261719 C 169.640625 198.488281 168.628906 198.828125 167.8125 199.121094 C 165.09375 200.109375 161.566406 201.554688 158.535156 203.710938 C 156.382812 205.238281 154.476562 207.125 153.332031 209.476562 C 154.007812 210.796875 154.613281 212.023438 154.773438 212.496094 C 155.023438 213.242188 155.164062 213.917969 155.167969 214.46875 C 155.175781 214.9375 155.082031 215.332031 154.914062 215.65625 C 154.3125 216.804688 153.515625 216.53125 153.140625 216.589844 L 153.132812 216.589844 C 152.855469 216.539062 152.535156 216.398438 152.203125 216.144531 C 151.722656 215.773438 151.144531 215.101562 150.546875 214.246094 C 149.585938 212.863281 148.527344 210.980469 147.65625 209.347656 L 136 214.480469 C 135.847656 215.203125 135.679688 216.382812 135.742188 217.78125 C 135.875 220.722656 136.675781 224.503906 137.105469 226.585938 C 138.023438 231.023438 139.070312 235.414062 141.351562 239.371094 C 141.71875 240.007812 142.144531 240.714844 142.621094 241.394531 C 142.628906 241.410156 142.640625 241.425781 142.648438 241.441406 C 142.785156 241.660156 145.023438 245.542969 147.921875 245.496094 C 150.769531 245.445312 153.390625 243.34375 155.246094 241.136719 C 156.558594 239.570312 157.824219 237.765625 158.976562 235.953125 C 159.363281 235.347656 159.292969 235.457031 159.578125 234.980469 C 159.808594 234.441406 160.410156 234.015625 160.996094 233.605469 C 161.121094 233.515625 161.5625 233.175781 161.667969 233.085938 C 163.308594 231.617188 165.75 229.632812 167.597656 226.730469 C 170.257812 222.554688 171.40625 216.023438 172.117188 214.101562 Z M 198.085938 223.140625 C 197.976562 222.695312 197.574219 222.378906 197.109375 222.378906 L 176.820312 222.378906 C 176.355469 222.378906 175.953125 222.695312 175.84375 223.140625 C 175.84375 223.140625 174.15625 230.0625 174.324219 235.179688 C 174.40625 237.675781 175.003906 239.753906 176.183594 240.71875 C 176.949219 241.34375 178.164062 241.867188 179.660156 242.238281 C 181.71875 242.753906 184.339844 243.015625 186.964844 243.015625 C 189.589844 243.015625 192.210938 242.753906 194.269531 242.238281 C 195.769531 241.867188 196.980469 241.34375 197.746094 240.71875 C 198.925781 239.753906 199.523438 237.675781 199.605469 235.179688 C 199.773438 230.0625 198.085938 223.140625 198.085938 223.140625 Z M 203.285156 198.683594 L 201.953125 214.09375 C 202.136719 214.578125 202.3125 215.265625 202.511719 216.113281 C 203.011719 218.21875 203.730469 221.410156 205.578125 224.570312 C 207.617188 228.054688 210.691406 230.984375 212.566406 232.945312 C 212.714844 233.101562 212.875 233.292969 213.03125 233.5 C 213.226562 233.597656 213.503906 233.933594 213.886719 234.597656 C 214.078125 234.929688 214.269531 235.257812 214.464844 235.578125 C 214.8125 236.148438 215.164062 236.699219 215.527344 237.230469 C 216.375 238.472656 218.957031 241.871094 221.425781 242.355469 C 223.777344 242.8125 225.742188 241.207031 226.996094 240 C 228.296875 238.746094 229.097656 237.457031 229.527344 236.855469 C 230.578125 235.394531 231.445312 233.847656 232.191406 232.242188 L 234.101562 227.398438 C 234.425781 226.457031 234.726562 225.511719 235.027344 224.558594 C 235.660156 222.53125 236.835938 218.847656 237.261719 215.933594 C 237.34375 215.359375 237.386719 214.816406 237.398438 214.328125 L 237.765625 212.867188 L 227.371094 206.988281 C 226.582031 208.433594 225.667969 210.015625 224.832031 211.207031 C 224.253906 212.027344 223.695312 212.671875 223.230469 213.023438 C 223.078125 213.140625 222.566406 213.34375 222.019531 213.273438 C 221.414062 213.199219 220.765625 212.828125 220.546875 212.46875 C 220.375 212.183594 220.328125 211.800781 220.332031 211.375 C 220.339844 210.847656 220.476562 210.195312 220.722656 209.476562 C 220.839844 209.140625 221.070312 208.59375 221.273438 208.132812 C 218.957031 204.75 214.960938 202.265625 210.832031 200.65625 C 208.25 199.652344 205.613281 198.988281 203.285156 198.683594 Z M 196.3125 224.382812 L 177.617188 224.382812 C 177.199219 226.261719 176.203125 231.230469 176.332031 235.113281 C 176.363281 236.097656 176.46875 237.003906 176.683594 237.761719 C 176.855469 238.363281 177.085938 238.863281 177.453125 239.164062 C 178.042969 239.644531 178.992188 240.003906 180.148438 240.292969 C 182.066406 240.773438 184.515625 241.007812 186.964844 241.007812 C 189.414062 241.007812 191.863281 240.773438 193.78125 240.292969 C 194.9375 240.003906 195.886719 239.644531 196.476562 239.164062 C 196.847656 238.863281 197.074219 238.363281 197.246094 237.761719 C 197.464844 237.003906 197.566406 236.097656 197.597656 235.113281 C 197.726562 231.230469 196.730469 226.261719 196.3125 224.382812 Z M 179.644531 228.160156 C 183.875 227.917969 190.644531 227.789062 194.871094 228.054688 C 195.425781 228.089844 195.902344 227.667969 195.933594 227.117188 C 195.972656 226.566406 195.550781 226.085938 194.996094 226.054688 C 190.703125 225.78125 183.824219 225.910156 179.527344 226.160156 C 178.976562 226.191406 178.554688 226.664062 178.585938 227.21875 C 178.617188 227.769531 179.09375 228.191406 179.644531 228.160156 Z M 146.296875 200.464844 C 146.101562 200.765625 145.894531 201.082031 145.683594 201.410156 C 146.378906 202.695312 147.074219 203.980469 147.773438 205.261719 C 148.449219 206.496094 150.46875 210.625 152.195312 213.097656 C 152.53125 213.582031 152.855469 214 153.152344 214.304688 C 153.121094 213.960938 153.015625 213.566406 152.871094 213.136719 C 152.0625 210.742188 150.03125 207.480469 149.308594 206.140625 C 148.292969 204.253906 147.292969 202.359375 146.296875 200.464844 Z M 197.058594 200.671875 C 197.085938 200.34375 197.105469 200.015625 197.125 199.6875 C 197.132812 199.566406 197.132812 199.367188 197.140625 199.144531 C 195.058594 199.691406 192.5 199.722656 190.664062 199.742188 C 185.9375 199.796875 181.207031 199.507812 176.652344 198.257812 C 176.652344 198.300781 176.652344 198.335938 176.65625 198.355469 C 176.660156 198.503906 176.667969 198.652344 176.675781 198.800781 L 178.132812 213.253906 L 195.933594 213.253906 L 197.019531 200.703125 C 197.03125 200.695312 197.046875 200.683594 197.058594 200.671875 Z M 144.65625 203.726562 C 144.597656 203.753906 144.539062 203.777344 144.523438 203.78125 C 141.660156 204.96875 138.875 206.300781 136.058594 207.589844 C 135.828125 207.695312 134.988281 208.035156 134.25 208.394531 C 134.128906 208.457031 133.992188 208.53125 133.867188 208.605469 L 134.257812 209.140625 C 134.882812 210.003906 135.328125 211.273438 135.691406 212.425781 L 146.71875 207.566406 C 146.421875 206.992188 146.179688 206.523438 146.015625 206.222656 C 145.558594 205.394531 145.109375 204.5625 144.65625 203.726562 Z M 228.808594 198.316406 C 227.894531 200.035156 226.976562 201.75 226.050781 203.457031 C 225.355469 204.738281 223.402344 207.84375 222.621094 210.125 C 222.503906 210.480469 222.410156 210.808594 222.367188 211.097656 C 222.625 210.824219 222.902344 210.464844 223.191406 210.054688 C 224.847656 207.699219 226.792969 203.761719 227.441406 202.585938 C 228.058594 201.46875 228.667969 200.351562 229.277344 199.230469 C 229.117188 198.921875 228.960938 198.613281 228.808594 198.316406 Z M 230.390625 201.382812 C 230.039062 202.027344 229.699219 202.644531 229.199219 203.554688 C 229.003906 203.90625 228.699219 204.496094 228.316406 205.21875 L 237.84375 210.609375 C 238.320312 209.5 238.890625 208.28125 239.601562 207.480469 L 240.042969 206.988281 C 239.921875 206.902344 239.796875 206.816406 239.679688 206.742188 C 238.980469 206.308594 238.179688 205.890625 237.960938 205.761719 C 235.441406 204.289062 232.953125 202.78125 230.390625 201.382812 Z M 134.066406 204.402344 C 134.085938 204.789062 134.140625 205.175781 134.234375 205.5625 L 134.375 206.136719 C 134.765625 205.960938 135.089844 205.828125 135.222656 205.765625 C 136.058594 205.382812 136.890625 204.996094 137.722656 204.613281 C 136.3125 204.617188 134.996094 204.507812 134.066406 204.402344 Z M 210.429688 184.957031 C 209.972656 185.363281 209.511719 185.75 209.050781 186.121094 C 209.054688 186.140625 209.0625 186.160156 209.0625 186.179688 C 209.386719 187.859375 210.285156 188.445312 211.421875 188.890625 C 212.347656 189.25 213.40625 189.535156 214.492188 190.070312 C 217.976562 191.789062 220.164062 194.707031 220.25 198.644531 C 220.265625 199.296875 220.054688 201.351562 219.597656 202.714844 C 219.480469 203.0625 219.339844 203.367188 219.1875 203.613281 C 219.652344 204.003906 220.15625 204.4375 220.300781 204.574219 C 220.324219 204.597656 220.351562 204.621094 220.375 204.644531 C 221.78125 202.023438 222.222656 199.785156 222.085938 197.871094 C 221.878906 195.007812 220.382812 192.882812 219.003906 191.28125 C 217.320312 189.332031 215.386719 188.988281 213.832031 188.496094 C 212.734375 188.148438 211.804688 187.726562 211.171875 186.84375 C 210.832031 186.371094 210.574219 185.765625 210.429688 184.957031 Z M 240.226562 202.847656 C 239.308594 202.863281 238.074219 202.847656 236.773438 202.734375 C 237.503906 203.167969 238.238281 203.597656 238.972656 204.03125 C 239.097656 204.101562 239.398438 204.265625 239.761719 204.472656 L 239.957031 203.921875 C 240.082031 203.566406 240.171875 203.207031 240.226562 202.847656 Z M 207.773438 187.105469 C 206.558594 188.023438 204.820312 189.285156 202.523438 190.53125 C 202.527344 190.546875 202.527344 190.5625 202.53125 190.582031 C 202.6875 191.527344 202.734375 192.46875 202.535156 193.417969 C 202.402344 194.039062 201.992188 194.824219 201.679688 195.621094 C 201.503906 196.0625 201.34375 196.503906 201.347656 196.910156 C 201.378906 196.910156 201.414062 196.914062 201.445312 196.914062 C 204.324219 197.058594 207.917969 197.808594 211.410156 199.171875 C 211.5625 199.230469 211.714844 199.289062 211.867188 199.351562 C 211.496094 198.285156 210.851562 197.320312 209.945312 196.621094 C 209.0625 195.933594 207.980469 195.265625 207.550781 194.171875 C 207.433594 193.878906 207.578125 193.550781 207.871094 193.4375 C 208.160156 193.320312 208.492188 193.464844 208.605469 193.753906 C 208.769531 194.167969 209.066406 194.488281 209.402344 194.777344 C 209.796875 195.121094 210.242188 195.417969 210.640625 195.722656 C 211.980469 196.765625 212.855469 198.277344 213.199219 199.925781 C 214.898438 200.703125 216.535156 201.625 218.023438 202.695312 C 218.085938 202.5625 218.144531 202.410156 218.199219 202.246094 C 218.601562 201.050781 218.789062 199.25 218.777344 198.675781 C 218.703125 195.320312 216.808594 192.855469 213.839844 191.390625 C 212.796875 190.878906 211.773438 190.613281 210.886719 190.265625 C 209.453125 189.703125 208.3125 188.96875 207.773438 187.105469 Z M 142.144531 187.175781 C 142.132812 187.179688 142.117188 187.1875 142.101562 187.1875 C 142.007812 187.203125 141.914062 187.234375 141.828125 187.269531 C 140.308594 187.847656 138.082031 189.886719 137.261719 191.234375 C 136.71875 192.125 135.140625 196.9375 134.335938 200.285156 C 134.140625 201.113281 133.972656 201.839844 133.902344 202.367188 C 135.058594 202.511719 137.25 202.722656 139.351562 202.539062 C 140.3125 202.457031 141.257812 202.292969 142.0625 201.988281 C 142.730469 201.734375 143.300781 201.390625 143.640625 200.871094 C 144.929688 198.894531 146.050781 197.164062 146.316406 196.667969 C 146.292969 196.574219 146.234375 196.339844 146.167969 196.195312 C 146.101562 196.042969 145.964844 195.832031 145.898438 195.734375 C 145.890625 195.738281 145.886719 195.738281 145.878906 195.738281 C 145.46875 195.789062 145.066406 195.578125 144.875 195.207031 C 144.683594 194.839844 144.738281 194.394531 145.011719 194.082031 C 145.078125 194.003906 145.140625 193.933594 145.1875 193.871094 C 145.164062 193.773438 145.105469 193.546875 145.042969 193.40625 C 144.972656 193.25 144.828125 193.03125 144.765625 192.9375 C 144.734375 192.945312 144.707031 192.957031 144.675781 192.964844 C 144.25 193.058594 143.808594 192.863281 143.59375 192.484375 C 143.375 192.101562 143.429688 191.625 143.726562 191.304688 C 143.832031 191.1875 143.929688 191.085938 143.992188 191 C 143.964844 190.898438 143.910156 190.671875 143.84375 190.53125 C 143.777344 190.375 143.636719 190.167969 143.570312 190.070312 C 143.558594 190.074219 143.546875 190.078125 143.535156 190.078125 C 143.445312 190.09375 143.359375 190.121094 143.277344 190.152344 C 142.835938 190.3125 142.34375 190.152344 142.089844 189.761719 C 141.832031 189.371094 141.878906 188.851562 142.203125 188.515625 C 142.355469 188.359375 142.488281 188.222656 142.566406 188.105469 C 142.542969 188.007812 142.484375 187.78125 142.421875 187.640625 C 142.351562 187.484375 142.210938 187.273438 142.144531 187.175781 Z M 234.367188 185.035156 L 233.792969 186.191406 C 233.761719 186.167969 233.726562 186.148438 233.691406 186.125 C 233.703125 186.136719 233.714844 186.152344 233.722656 186.164062 C 234.011719 186.53125 234.007812 187.050781 233.714844 187.414062 C 233.421875 187.777344 232.914062 187.890625 232.496094 187.683594 C 232.414062 187.644531 232.332031 187.609375 232.242188 187.585938 C 232.230469 187.585938 232.222656 187.578125 232.210938 187.574219 C 232.132812 187.664062 231.972656 187.859375 231.890625 188.007812 C 231.8125 188.140625 231.734375 188.359375 231.699219 188.457031 C 231.753906 188.550781 231.835938 188.660156 231.933594 188.785156 C 232.195312 189.136719 232.203125 189.617188 231.949219 189.972656 C 231.691406 190.328125 231.238281 190.480469 230.820312 190.34375 C 230.792969 190.335938 230.765625 190.316406 230.738281 190.308594 C 230.664062 190.398438 230.5 190.597656 230.414062 190.75 C 230.335938 190.882812 230.257812 191.097656 230.222656 191.195312 C 230.261719 191.261719 230.316406 191.335938 230.378906 191.421875 C 230.617188 191.761719 230.628906 192.210938 230.398438 192.558594 C 230.171875 192.902344 229.753906 193.074219 229.347656 192.984375 C 229.34375 192.984375 229.335938 192.980469 229.328125 192.980469 C 229.253906 193.070312 229.097656 193.261719 229.011719 193.410156 C 228.933594 193.546875 228.851562 193.777344 228.820312 193.867188 C 229.042969 194.402344 230.035156 196.332031 231.164062 198.507812 C 231.441406 199.046875 231.976562 199.429688 232.613281 199.738281 C 233.390625 200.113281 234.320312 200.359375 235.277344 200.523438 C 237.386719 200.890625 239.625 200.871094 240.800781 200.824219 C 240.777344 200.296875 240.671875 199.554688 240.542969 198.707031 C 240.019531 195.277344 238.824219 190.304688 238.371094 189.363281 C 237.710938 187.988281 235.804688 185.835938 234.367188 185.035156 Z M 196.28125 193.199219 C 195.832031 193.34375 195.367188 193.484375 194.894531 193.617188 C 192.976562 194.152344 191.074219 194.765625 189.316406 195.199219 C 188.457031 196.003906 187.714844 196.929688 187.089844 197.96875 C 188.273438 198.011719 189.460938 198.019531 190.644531 198.003906 C 192.597656 197.984375 195.464844 198.011719 197.460938 197.226562 C 197.382812 196.5625 197.132812 195.890625 196.933594 195.269531 C 196.78125 194.789062 196.574219 193.953125 196.28125 193.199219 Z M 176.25 194.390625 C 176.261719 195.09375 176.296875 195.835938 176.300781 196.347656 C 178.921875 197.140625 181.609375 197.585938 184.320312 197.808594 C 183.917969 196.855469 183.59375 196.144531 183.238281 195.601562 C 179.90625 195.238281 176.734375 194.570312 176.753906 194.5 C 176.59375 194.464844 176.425781 194.429688 176.25 194.390625 Z M 201.460938 191.085938 C 200.386719 191.621094 199.207031 192.144531 197.921875 192.628906 C 198.214844 193.410156 198.433594 194.25 198.589844 194.746094 C 198.800781 195.40625 199.039062 196.113281 199.152344 196.824219 C 199.285156 196.820312 199.421875 196.820312 199.554688 196.832031 C 199.835938 196.855469 200.050781 196.871094 200.226562 196.878906 C 200.234375 196.496094 200.316406 196.097656 200.445312 195.691406 C 200.738281 194.800781 201.277344 193.882812 201.425781 193.183594 C 201.574219 192.480469 201.554688 191.785156 201.460938 191.085938 Z M 186.515625 195.71875 C 186.097656 195.761719 185.695312 195.78125 185.308594 195.773438 C 185.511719 196.175781 185.660156 196.539062 185.773438 196.796875 C 186.007812 196.421875 186.253906 196.066406 186.515625 195.71875 Z M 191.925781 126.410156 C 187.777344 126.921875 183.644531 127.566406 179.535156 128.335938 C 174.304688 129.3125 169.113281 130.488281 163.964844 131.84375 C 164.347656 134.925781 163.746094 138.140625 163.171875 141.148438 C 162.996094 142.058594 162.808594 142.996094 162.59375 143.945312 C 162.703125 143.929688 162.8125 143.910156 162.921875 143.894531 C 163.335938 143.828125 163.753906 143.769531 164.167969 143.71875 C 164.429688 143.6875 165.417969 143.59375 165.636719 143.574219 C 167.664062 143.417969 169.648438 143.453125 171.417969 143.695312 C 171.882812 143.761719 172.207031 144.1875 172.140625 144.652344 C 172.078125 145.113281 171.648438 145.4375 171.1875 145.375 C 168.777344 145.039062 165.949219 145.132812 163.183594 145.566406 C 162.84375 145.621094 162.503906 145.679688 162.164062 145.742188 C 160.765625 151.210938 158.433594 156.839844 153.601562 159.796875 C 153.34375 159.957031 153.003906 159.875 152.84375 159.617188 C 152.6875 159.355469 152.769531 159.019531 153.027344 158.859375 C 157.464844 156.136719 159.644531 151.039062 160.972656 145.992188 C 160.011719 146.210938 159.078125 146.46875 158.191406 146.765625 L 157.625 146.964844 C 155.792969 152.125 153.28125 157.292969 150.171875 160.734375 C 150.882812 166.816406 154.789062 176.917969 159.140625 182.40625 C 164.957031 189.730469 173.5 192.121094 177.632812 192.902344 C 180.699219 193.480469 182.527344 194.199219 185.558594 193.960938 C 188.84375 193.699219 191.855469 192.4375 192.929688 192.132812 C 199.273438 190.15625 211.960938 186.226562 218.539062 170.347656 C 221.257812 163.78125 220.160156 154.898438 218.984375 148.925781 C 218.972656 148.875 218.96875 148.828125 218.96875 148.777344 C 214.925781 147.011719 211.117188 144.808594 207.660156 142.140625 C 206.46875 142.007812 205.226562 141.945312 203.976562 141.949219 C 207.226562 144.667969 210.988281 146.789062 214.996094 148.214844 C 215.28125 148.316406 215.433594 148.632812 215.332031 148.917969 C 215.230469 149.207031 214.914062 149.355469 214.625 149.253906 C 210.109375 147.648438 205.902344 145.183594 202.347656 141.996094 C 199.894531 142.128906 197.484375 142.527344 195.449219 143.195312 C 195.007812 143.339844 194.527344 143.097656 194.382812 142.652344 C 194.238281 142.207031 194.480469 141.730469 194.925781 141.585938 C 196.65625 141.019531 198.640625 140.628906 200.703125 140.425781 C 198.875 138.554688 197.257812 136.476562 195.90625 134.203125 C 194.414062 131.695312 193.3125 128.980469 191.925781 126.410156 Z M 132.796875 163.996094 C 132.695312 163.777344 132.59375 163.566406 132.484375 163.367188 C 130.664062 160.074219 127.089844 158.453125 124.433594 159.921875 C 121.777344 161.386719 121.246094 165.277344 123.066406 168.570312 C 124.097656 170.433594 125.902344 172.449219 127.804688 173.726562 C 128.953125 174.5 130.125 175.019531 131.171875 174.960938 C 131.574219 174.9375 131.953125 175.160156 132.128906 175.519531 C 132.878906 177.054688 135.0625 181.503906 136.355469 183.921875 C 136.960938 185.050781 137.5625 186.183594 138.164062 187.3125 C 138.457031 187.058594 138.761719 186.816406 139.0625 186.59375 C 138.554688 185.628906 138.046875 184.664062 137.535156 183.699219 C 136.128906 181.054688 133.6875 176.335938 133.082031 175.164062 C 132.917969 174.847656 132.933594 174.464844 133.125 174.164062 C 133.734375 173.207031 133.988281 171.796875 134.011719 170.273438 C 134.03125 169.054688 133.894531 167.765625 133.625 166.558594 C 133.328125 165.667969 133.054688 164.808594 132.796875 163.996094 Z M 241.054688 175.109375 C 240.03125 177.0625 238.390625 180.1875 237.390625 182.054688 C 237.046875 182.695312 236.703125 183.339844 236.359375 183.984375 C 236.617188 184.1875 236.878906 184.410156 237.136719 184.648438 C 237.570312 183.84375 238.003906 183.039062 238.4375 182.230469 C 239.40625 180.4375 240.890625 177.480469 241.84375 175.5625 C 241.578125 175.414062 241.308594 175.261719 241.054688 175.109375 Z M 152.933594 175.375 C 150.832031 170.917969 149.214844 166.046875 148.628906 162.292969 C 148.460938 162.285156 148.292969 162.230469 148.148438 162.121094 C 146.449219 160.855469 144.6875 161.074219 143.308594 162.074219 C 143.21875 162.199219 143.097656 162.300781 142.945312 162.367188 C 142.628906 162.640625 142.339844 162.957031 142.078125 163.308594 C 140.699219 165.15625 140.128906 167.886719 141.203125 170.300781 C 141.9375 171.9375 143.425781 173.40625 145.886719 174.386719 C 147.414062 174.992188 151.214844 175.847656 152.875 175.386719 C 152.894531 175.382812 152.914062 175.378906 152.933594 175.375 Z M 253.167969 160.351562 L 253.140625 160.308594 C 252.625 159.632812 251.820312 159.175781 251.121094 158.71875 C 250.457031 158.28125 248.640625 157.5 247.800781 157.417969 C 247.738281 157.484375 247.628906 157.617188 247.570312 157.707031 C 247.425781 157.9375 247.316406 158.175781 247.242188 158.308594 C 246.269531 160.109375 245.320312 161.921875 244.453125 163.78125 C 244.128906 164.472656 243.269531 165.847656 242.636719 167.101562 C 242.308594 167.746094 242.011719 168.335938 242.023438 168.722656 C 242.027344 168.984375 242.203125 169.355469 242.296875 169.738281 C 242.410156 170.195312 242.457031 170.660156 242.378906 171.078125 C 242.28125 171.570312 241.851562 172.402344 241.492188 173.046875 C 242.007812 173.351562 242.625 173.71875 243.203125 174.015625 C 243.535156 174.1875 243.988281 174.351562 244.195312 174.425781 C 244.269531 174.316406 244.402344 174.125 244.476562 173.984375 C 244.792969 173.371094 245.101562 172.71875 245.421875 172.40625 C 245.648438 172.183594 245.953125 172.035156 246.328125 171.945312 C 246.601562 171.878906 246.996094 171.898438 247.308594 171.558594 C 248.09375 170.710938 248.417969 169.476562 248.882812 168.445312 C 249.308594 167.488281 249.816406 166.5625 250.300781 165.636719 C 251.074219 164.167969 251.914062 162.738281 252.664062 161.261719 C 252.761719 161.074219 252.878906 160.878906 252.992188 160.683594 C 253.058594 160.574219 253.128906 160.464844 253.167969 160.351562 Z M 248.9375 172.742188 C 249.121094 172.761719 249.273438 172.75 249.386719 172.710938 C 250.214844 172.410156 250.851562 171.648438 251.480469 170.671875 C 252.226562 169.507812 252.925781 168.039062 253.714844 166.464844 C 255.042969 163.820312 256.507812 161.230469 257.921875 158.628906 C 258.414062 157.726562 259.425781 155.980469 260.09375 154.347656 C 260.464844 153.4375 260.769531 152.582031 260.671875 151.996094 C 260.636719 151.78125 260.449219 151.636719 260.296875 151.492188 C 258.894531 150.15625 257.136719 149.921875 255.285156 149.734375 C 253.605469 149.558594 251.636719 149.28125 250.019531 149.910156 C 248.835938 150.367188 247.691406 151.683594 246.617188 153.234375 C 244.847656 155.785156 243.347656 159.007812 242.511719 160.863281 C 242.128906 161.707031 241.019531 163.570312 240.292969 165.339844 C 239.898438 166.292969 239.570312 167.199219 239.71875 167.816406 C 239.757812 167.992188 239.890625 168.15625 240.054688 168.328125 C 240.121094 167.90625 240.289062 167.394531 240.535156 166.847656 C 241.152344 165.460938 242.257812 163.738281 242.636719 162.933594 C 243.515625 161.039062 244.484375 159.191406 245.476562 157.351562 C 245.648438 157.035156 246.015625 156.308594 246.484375 155.894531 C 246.84375 155.574219 247.257812 155.402344 247.691406 155.40625 C 248.695312 155.414062 251.304688 156.4375 252.222656 157.039062 C 253.105469 157.621094 254.089844 158.242188 254.738281 159.097656 C 255.019531 159.46875 255.238281 159.949219 255.191406 160.4375 C 255.128906 161.046875 254.722656 161.632812 254.457031 162.164062 C 253.703125 163.65625 252.855469 165.09375 252.078125 166.570312 C 251.609375 167.457031 251.125 168.347656 250.714844 169.265625 C 250.195312 170.417969 249.761719 171.75 248.9375 172.742188 Z M 143.90625 168.257812 C 144.546875 168.488281 145.109375 169.050781 145.660156 169.4375 C 146.785156 170.230469 147.96875 170.742188 149.308594 171.050781 C 149.777344 171.160156 150.246094 170.867188 150.351562 170.398438 C 150.460938 169.933594 150.167969 169.464844 149.699219 169.359375 C 148.585938 169.101562 147.601562 168.679688 146.660156 168.015625 C 145.992188 167.542969 145.277344 166.902344 144.492188 166.621094 C 144.042969 166.457031 143.542969 166.695312 143.382812 167.144531 C 143.21875 167.597656 143.453125 168.09375 143.90625 168.257812 Z M 221.828125 163.496094 C 223.441406 163.4375 225.304688 162.53125 226.558594 161.742188 C 228.800781 160.332031 230 158.613281 230.417969 156.871094 C 231.039062 154.304688 229.976562 151.722656 228.285156 150.15625 C 226.523438 148.523438 224.019531 148.023438 222.105469 150.09375 C 221.8125 150.410156 221.34375 150.460938 220.996094 150.234375 C 221.382812 152.445312 221.71875 154.933594 221.867188 157.503906 C 221.878906 157.5 221.886719 157.496094 221.894531 157.492188 C 222.941406 157.035156 223.835938 156.441406 224.636719 155.621094 C 225.210938 155.035156 225.796875 154.273438 226.515625 153.855469 C 226.929688 153.613281 227.460938 153.753906 227.703125 154.167969 C 227.945312 154.582031 227.804688 155.113281 227.390625 155.355469 C 226.804688 155.699219 226.351562 156.351562 225.882812 156.832031 C 224.917969 157.824219 223.847656 158.539062 222.585938 159.085938 C 222.371094 159.179688 222.140625 159.179688 221.9375 159.105469 C 221.976562 160.566406 221.945312 162.039062 221.828125 163.496094 Z M 159.40625 133.09375 C 158.699219 133.296875 157.996094 133.5 157.292969 133.707031 C 155.945312 134.105469 154.609375 134.535156 153.285156 134.996094 C 153.230469 135.117188 151.234375 135.820312 151.273438 135.722656 C 149.660156 136.324219 148.0625 136.96875 146.476562 137.644531 C 144.941406 138.296875 142.472656 139.722656 140.265625 140.582031 C 140.207031 140.601562 140.148438 140.625 140.09375 140.648438 C 139.746094 143.09375 139.691406 145.503906 139.914062 147.949219 C 142.78125 146.554688 145.953125 143.335938 146.800781 140.425781 C 146.886719 140.132812 147.191406 139.964844 147.484375 140.050781 C 147.777344 140.136719 147.945312 140.441406 147.859375 140.734375 C 146.902344 144.019531 143.246094 147.683594 140.039062 149.105469 C 140.480469 152.636719 141.488281 156.261719 143 160.191406 C 143.738281 159.78125 144.539062 159.527344 145.371094 159.480469 C 147.273438 155.699219 148.839844 151.429688 149.105469 147.199219 C 149.125 146.894531 149.386719 146.664062 149.691406 146.683594 C 149.996094 146.703125 150.226562 146.964844 150.207031 147.265625 C 149.941406 151.484375 148.4375 155.746094 146.570312 159.546875 C 147.164062 159.652344 147.769531 159.867188 148.375 160.199219 C 151.328125 157.230469 153.734375 152.613281 155.542969 147.84375 L 155.523438 147.851562 C 154.746094 148.234375 153.792969 148.691406 152.925781 149.21875 C 152.382812 149.550781 151.875 149.90625 151.488281 150.296875 C 151.15625 150.628906 150.621094 150.628906 150.289062 150.300781 C 150.152344 150.160156 150.070312 149.984375 150.046875 149.804688 C 150.042969 149.761719 150.042969 149.46875 150.125 149.300781 C 150.167969 149.207031 150.253906 149.140625 150.289062 149.101562 C 150.765625 148.625 151.378906 148.179688 152.046875 147.773438 C 152.957031 147.21875 153.957031 146.734375 154.773438 146.332031 C 155.265625 146.089844 155.789062 145.859375 156.332031 145.644531 C 157.453125 142.347656 158.285156 139.082031 158.816406 136.339844 C 159.019531 135.296875 159.347656 134.183594 159.40625 133.09375 Z M 222.589844 126.175781 C 221.671875 126.039062 220.9375 125.925781 220.796875 125.902344 C 217.683594 125.40625 214.617188 125.183594 211.546875 125.132812 C 211.316406 125.128906 211.085938 125.128906 210.855469 125.125 C 210.855469 125.125 210.011719 125.136719 209.386719 125.140625 C 212.21875 127.316406 215.304688 128.855469 218.839844 129.859375 C 219.132812 129.945312 219.300781 130.25 219.21875 130.542969 C 219.136719 130.835938 218.828125 131.003906 218.539062 130.921875 C 214.417969 129.746094 210.886719 127.878906 207.652344 125.160156 C 205.851562 125.207031 204.042969 125.304688 202.210938 125.425781 C 200.238281 125.5625 198.265625 125.726562 196.300781 125.921875 C 197 127.820312 198.253906 129.585938 199.386719 131.1875 C 201.917969 134.765625 204.925781 137.867188 208.289062 140.511719 C 209.523438 140.671875 210.699219 140.90625 211.773438 141.214844 C 212.648438 141.464844 213.71875 141.761719 214.714844 142.144531 C 215.441406 142.421875 216.125 142.753906 216.679688 143.136719 C 217.066406 143.40625 217.15625 143.933594 216.890625 144.316406 C 216.625 144.703125 216.097656 144.796875 215.710938 144.527344 C 215.261719 144.214844 214.695312 143.953125 214.101562 143.722656 C 213.289062 143.410156 212.421875 143.160156 211.667969 142.945312 C 214.683594 144.929688 217.925781 146.59375 221.320312 147.953125 C 221.441406 148 221.546875 148.074219 221.628906 148.167969 C 222.628906 147.375 223.707031 147 224.78125 146.953125 C 224.785156 146.90625 224.789062 146.851562 224.796875 146.800781 C 223.179688 146.507812 221.515625 145.589844 219.953125 144.375 C 217.570312 142.519531 215.425781 139.976562 214.054688 138.074219 C 213.875 137.824219 213.929688 137.480469 214.175781 137.300781 C 214.425781 137.125 214.769531 137.179688 214.945312 137.429688 C 216.269531 139.261719 218.335938 141.71875 220.628906 143.507812 C 222.003906 144.578125 223.457031 145.414062 224.882812 145.695312 C 225.359375 139.246094 225.359375 132.214844 222.589844 126.175781 Z M 162.890625 132.132812 C 162.285156 132.292969 161.683594 132.457031 161.085938 132.625 C 161.101562 133.96875 160.707031 135.359375 160.457031 136.65625 C 159.980469 139.125 159.257812 142 158.308594 144.953125 C 159.304688 144.644531 160.351562 144.378906 161.421875 144.164062 C 161.671875 143.0625 161.886719 141.980469 162.089844 140.941406 C 162.636719 138.09375 163.222656 135.050781 162.890625 132.132812 Z M 194.59375 126.101562 C 194.097656 126.15625 193.597656 126.210938 193.101562 126.269531 C 194.386719 128.710938 195.441406 131.269531 196.851562 133.640625 C 198.320312 136.105469 200.113281 138.339844 202.152344 140.3125 C 202.542969 140.289062 202.929688 140.273438 203.320312 140.265625 C 204.011719 140.25 204.703125 140.253906 205.386719 140.277344 C 202.648438 137.890625 200.171875 135.1875 198.019531 132.152344 C 196.730469 130.328125 195.324219 128.285156 194.59375 126.101562 Z M 195.746094 124.277344 C 197.859375 124.0625 199.976562 123.882812 202.097656 123.738281 C 205.304688 123.519531 208.441406 123.390625 211.574219 123.441406 C 214.722656 123.488281 217.867188 123.722656 221.0625 124.230469 C 221.621094 124.320312 224.191406 124.886719 225.460938 124.929688 C 225.554688 123.476562 225.21875 120.203125 225.191406 119.703125 C 225.054688 117.121094 225.191406 115.320312 224.617188 114.128906 C 224.375 113.625 223.972656 113.277344 223.320312 113.027344 C 222.554688 112.738281 221.503906 112.582031 220.0625 112.519531 C 218.53125 112.449219 217 112.414062 215.46875 112.402344 C 213.160156 112.378906 210.851562 112.402344 208.546875 112.414062 C 203.746094 112.4375 198.898438 112.386719 194.066406 112.503906 C 190.855469 112.582031 187.652344 112.734375 184.472656 113.027344 C 179.667969 113.476562 172.53125 114.8125 165.207031 116.542969 C 158.539062 118.117188 151.710938 120.019531 146.328125 121.886719 C 144.007812 122.691406 142.078125 123.527344 140.511719 124.316406 C 137.433594 125.859375 135.777344 127.191406 135.304688 127.621094 C 134.355469 128.492188 134.058594 129.277344 134.136719 130.101562 C 134.28125 131.589844 135.339844 133.128906 135.933594 135.0625 C 136.09375 135.585938 136.765625 138.539062 137.402344 139.621094 C 138.058594 139.5625 138.835938 139.320312 139.652344 139.003906 C 141.839844 138.152344 144.289062 136.738281 145.808594 136.089844 C 147.605469 135.320312 149.417969 134.597656 151.25 133.925781 C 153.082031 133.253906 154.9375 132.636719 156.8125 132.082031 C 164.199219 129.90625 171.671875 128.082031 179.222656 126.671875 C 184.238281 125.734375 189.285156 124.976562 194.363281 124.425781 C 194.472656 124.210938 194.675781 124.046875 194.925781 123.992188 C 195.242188 123.925781 195.554688 124.046875 195.746094 124.277344 Z M 173.835938 67.066406 C 175.148438 68.613281 176.3125 70.375 177.3125 72.355469 C 177.523438 72.773438 177.355469 73.28125 176.9375 73.492188 C 176.523438 73.703125 176.011719 73.539062 175.800781 73.121094 C 173.554688 68.679688 170.441406 65.398438 166.644531 63.25 C 162.855469 61.101562 158.394531 60.082031 153.449219 60.128906 C 135.332031 60.308594 124.410156 70.59375 120.027344 82.148438 C 114.273438 97.316406 119.699219 114.785156 135.167969 113.585938 C 136.855469 113.457031 138.742188 113.335938 140.542969 112.996094 C 141.703125 112.773438 142.828125 112.460938 143.835938 111.980469 C 143.871094 111.964844 143.90625 111.949219 143.941406 111.9375 C 146.0625 108.808594 148.566406 105.917969 151.378906 103.140625 C 151.710938 102.8125 152.25 102.816406 152.578125 103.148438 C 152.90625 103.480469 152.902344 104.019531 152.570312 104.347656 C 149.6875 107.1875 147.140625 110.152344 145.011719 113.382812 C 143.175781 116.171875 141.652344 119.160156 140.496094 122.4375 C 141.972656 121.730469 143.726562 120.996094 145.773438 120.285156 C 151.203125 118.40625 158.089844 116.484375 164.816406 114.894531 C 172.230469 113.144531 179.453125 111.796875 184.316406 111.34375 C 187.535156 111.042969 190.773438 110.890625 194.023438 110.8125 C 198.867188 110.695312 203.726562 110.746094 208.539062 110.71875 C 210.851562 110.707031 213.167969 110.6875 215.484375 110.707031 C 217.03125 110.722656 218.578125 110.757812 220.121094 110.824219 C 220.074219 110.398438 220.03125 109.957031 219.957031 109.535156 C 219.933594 109.40625 219.90625 109.28125 219.875 109.160156 C 219.347656 109.175781 218.808594 109.183594 218.257812 109.171875 C 215.429688 109.128906 212.453125 108.523438 209.746094 107.34375 C 207.007812 106.144531 204.550781 104.359375 202.804688 101.992188 C 202.527344 101.613281 202.609375 101.085938 202.984375 100.808594 C 203.359375 100.527344 203.890625 100.609375 204.167969 100.988281 C 205.738281 103.121094 207.957031 104.714844 210.425781 105.792969 C 212.921875 106.882812 215.671875 107.441406 218.28125 107.480469 C 228.070312 107.628906 234.148438 103.203125 236.675781 96.777344 C 239.179688 90.414062 238.234375 82.167969 234.121094 74.5625 C 233.167969 72.804688 232.101562 71.042969 230.828125 69.464844 C 229.585938 67.917969 228.152344 66.546875 226.4375 65.523438 C 225.078125 64.710938 223.574219 64.199219 222.027344 63.886719 C 220.4375 63.566406 218.796875 63.449219 217.199219 63.441406 C 214.925781 63.425781 212.523438 63.574219 210.164062 63.964844 C 207.835938 64.351562 205.550781 64.976562 203.484375 65.925781 C 203.074219 66.113281 202.59375 65.945312 202.382812 65.554688 C 202.367188 65.535156 202.351562 65.511719 202.335938 65.488281 C 199.511719 61.085938 195.464844 58.511719 191.101562 57.832031 C 186.714844 57.148438 182.023438 58.378906 177.964844 61.542969 C 176.890625 62.378906 175.746094 63.449219 174.914062 64.65625 C 174.386719 65.414062 173.984375 66.226562 173.835938 67.066406 " fill-opacity="1" fill-rule="evenodd"/></g><path fill="#e5271d" d="M 186.746094 177.109375 C 188.359375 176.960938 190.617188 176.285156 191.558594 176.359375 C 192.039062 176.394531 192.507812 177.074219 192.386719 177.542969 C 192.203125 178.257812 191.429688 180.035156 190.445312 180.648438 C 190.109375 180.859375 188.925781 181.601562 187.507812 181.734375 C 185.949219 181.886719 184.144531 181.414062 183.734375 181.253906 C 182.65625 180.824219 181.578125 179.210938 181.269531 178.542969 C 181.066406 178.101562 181.410156 177.351562 181.875 177.230469 C 182.789062 176.988281 185.132812 177.253906 186.746094 177.109375 " fill-opacity="1" fill-rule="evenodd"/><path fill="#e5271d" d="M 187.375 169.886719 C 187.128906 168.132812 184.796875 167.257812 184.691406 169.773438 C 184.589844 172.144531 186.867188 174.570312 187.390625 171.445312 L 187.375 169.886719 " fill-opacity="1" fill-rule="evenodd"/><path fill="#e5271d" d="M 209.789062 163.84375 C 211.972656 163.644531 213.851562 164.671875 213.980469 166.128906 C 214.113281 167.585938 212.449219 168.929688 210.261719 169.125 C 208.078125 169.320312 206.199219 168.296875 206.070312 166.839844 C 205.9375 165.382812 207.605469 164.039062 209.789062 163.84375 " fill-opacity="1" fill-rule="evenodd"/><path fill="#e5271d" d="M 161.5625 168.175781 C 163.746094 167.980469 165.625 169.003906 165.753906 170.460938 C 165.886719 171.917969 164.21875 173.261719 162.035156 173.457031 C 159.851562 173.652344 157.972656 172.628906 157.84375 171.171875 C 157.710938 169.714844 159.378906 168.371094 161.5625 168.175781 " fill-opacity="1" fill-rule="evenodd"/><path fill="#000000" d="M 170.648438 160.03125 C 172.335938 160.03125 173.699219 161.648438 173.699219 163.640625 C 173.699219 164.597656 173.382812 165.46875 172.867188 166.117188 C 172.3125 166.8125 171.523438 167.246094 170.648438 167.246094 C 169.859375 167.246094 169.140625 166.890625 168.597656 166.308594 C 167.984375 165.648438 167.601562 164.699219 167.601562 163.640625 C 167.601562 161.648438 168.964844 160.03125 170.648438 160.03125 " fill-opacity="1" fill-rule="evenodd"/><path fill="#000000" d="M 199.523438 158.109375 C 201.207031 158.109375 202.574219 159.726562 202.574219 161.714844 C 202.574219 163.707031 201.207031 165.324219 199.523438 165.324219 C 197.839844 165.324219 196.472656 163.707031 196.472656 161.714844 C 196.472656 159.726562 197.839844 158.109375 199.523438 158.109375 " fill-opacity="1" fill-rule="evenodd"/><g fill="#000000" fill-opacity="1"><g transform="translate(45.836994, 249.2499)"><g><path d="M 1.546875 -0.46875 L 3.40625 -0.9375 L 3.40625 -20.765625 L 1.546875 -21.234375 L 1.546875 -21.703125 L 18.140625 -21.703125 L 18.140625 -16.125 L 17.203125 -16.125 C 16.804688 -16.425781 16.46875 -16.816406 16.1875 -17.296875 C 15.519531 -18.410156 15.1875 -19.617188 15.1875 -20.921875 L 8.53125 -20.921875 L 8.53125 -11.15625 L 12.09375 -11.15625 C 12.238281 -11.945312 12.503906 -12.679688 12.890625 -13.359375 C 13.054688 -13.671875 13.253906 -13.972656 13.484375 -14.265625 L 14.421875 -14.265625 L 14.421875 -7.28125 L 13.484375 -7.28125 C 13.253906 -7.570312 13.054688 -7.875 12.890625 -8.1875 C 12.503906 -8.863281 12.238281 -9.597656 12.09375 -10.390625 L 8.53125 -10.390625 L 8.53125 -0.78125 L 15.8125 -0.78125 C 15.8125 -2.082031 16.140625 -3.289062 16.796875 -4.40625 C 17.085938 -4.875 17.429688 -5.265625 17.828125 -5.578125 L 18.75 -5.578125 L 18.75 0 L 1.546875 0 Z M 1.546875 -0.46875 "/></g></g></g><g fill="#000000" fill-opacity="1"><g transform="translate(65.829501, 249.2499)"><g><path d="M 1.546875 -0.46875 L 3.40625 -0.9375 L 3.40625 -20.765625 L 1.546875 -21.234375 L 1.546875 -21.703125 L 10.390625 -21.703125 L 10.390625 -21.234375 L 8.53125 -20.765625 L 8.53125 -11.03125 L 16.125 -20.3125 L 13.796875 -21.234375 L 13.796875 -21.703125 L 19.6875 -21.703125 L 19.6875 -21.234375 L 17.203125 -20.3125 L 11.78125 -13.640625 L 20.15625 -0.9375 L 21.703125 -0.46875 L 21.703125 0 L 17.359375 0 C 16.429688 0 15.640625 -0.226562 14.984375 -0.6875 C 14.335938 -1.15625 13.734375 -1.804688 13.171875 -2.640625 L 8.53125 -9.765625 L 8.53125 -0.9375 L 10.390625 -0.46875 L 10.390625 0 L 1.546875 0 Z M 1.546875 -0.46875 "/></g></g></g><g fill="#000000" fill-opacity="1"><g transform="translate(87.216836, 249.2499)"><g><path d="M 9.140625 0.46875 C 7.671875 0.46875 6.296875 0.132812 5.015625 -0.53125 C 4.441406 -0.820312 3.957031 -1.160156 3.5625 -1.546875 C 3.269531 -1.078125 2.910156 -0.65625 2.484375 -0.28125 C 2.109375 -0.0078125 1.898438 0.132812 1.859375 0.15625 L 1.078125 0.15625 L 1.078125 -5.734375 L 2.328125 -5.734375 C 2.640625 -4.722656 3.070312 -3.8125 3.625 -3 C 4.882812 -1.207031 6.519531 -0.3125 8.53125 -0.3125 C 9.707031 -0.3125 10.644531 -0.660156 11.34375 -1.359375 C 12.050781 -2.066406 12.40625 -3.007812 12.40625 -4.1875 C 12.40625 -4.863281 12.203125 -5.46875 11.796875 -6 C 11.390625 -6.539062 10.882812 -7.019531 10.28125 -7.4375 C 9.6875 -7.851562 8.851562 -8.367188 7.78125 -8.984375 C 6.414062 -9.753906 5.304688 -10.445312 4.453125 -11.0625 C 3.609375 -11.6875 2.882812 -12.46875 2.28125 -13.40625 C 1.6875 -14.34375 1.390625 -15.453125 1.390625 -16.734375 C 1.390625 -17.753906 1.671875 -18.671875 2.234375 -19.484375 C 2.804688 -20.296875 3.660156 -20.945312 4.796875 -21.4375 C 5.941406 -21.925781 7.335938 -22.171875 8.984375 -22.171875 C 10.179688 -22.171875 11.382812 -21.828125 12.59375 -21.140625 C 13.039062 -20.890625 13.492188 -20.5625 13.953125 -20.15625 C 14.304688 -20.6875 14.664062 -21.109375 15.03125 -21.421875 C 15.40625 -21.691406 15.613281 -21.835938 15.65625 -21.859375 L 16.4375 -21.859375 L 16.4375 -15.96875 L 15.1875 -15.96875 C 14.914062 -16.957031 14.515625 -17.851562 13.984375 -18.65625 C 13.484375 -19.445312 12.863281 -20.097656 12.125 -20.609375 C 11.394531 -21.128906 10.554688 -21.390625 9.609375 -21.390625 C 8.804688 -21.390625 8.113281 -21.066406 7.53125 -20.421875 C 6.957031 -19.785156 6.671875 -18.972656 6.671875 -17.984375 C 6.671875 -17.210938 6.890625 -16.519531 7.328125 -15.90625 C 7.773438 -15.300781 8.320312 -14.769531 8.96875 -14.3125 C 9.625 -13.863281 10.507812 -13.316406 11.625 -12.671875 C 12.925781 -11.929688 13.976562 -11.269531 14.78125 -10.6875 C 15.59375 -10.113281 16.273438 -9.394531 16.828125 -8.53125 C 17.390625 -7.675781 17.671875 -6.691406 17.671875 -5.578125 C 17.671875 -4.460938 17.347656 -3.441406 16.703125 -2.515625 C 16.066406 -1.597656 15.109375 -0.867188 13.828125 -0.328125 C 12.546875 0.203125 10.984375 0.46875 9.140625 0.46875 Z M 9.140625 0.46875 "/></g></g></g><g fill="#000000" fill-opacity="1"><g transform="translate(105.659538, 249.2499)"><g><path d="M 5.421875 -0.46875 L 7.28125 -0.9375 L 7.28125 -20.921875 L 3.71875 -20.921875 C 3.71875 -19.660156 3.378906 -18.453125 2.703125 -17.296875 C 2.410156 -16.816406 2.078125 -16.425781 1.703125 -16.125 L 0.78125 -16.125 L 0.78125 -21.703125 L 18.90625 -21.703125 L 18.90625 -16.125 L 17.984375 -16.125 C 17.585938 -16.425781 17.242188 -16.816406 16.953125 -17.296875 C 16.296875 -18.410156 15.96875 -19.617188 15.96875 -20.921875 L 12.40625 -20.921875 L 12.40625 -0.9375 L 14.265625 -0.46875 L 14.265625 0 L 5.421875 0 Z M 5.421875 -0.46875 "/></g></g></g><g fill="#000000" fill-opacity="1"><g transform="translate(125.342093, 249.2499)"><g><path d="M 1.546875 -0.46875 L 3.40625 -0.9375 L 3.40625 -20.765625 L 1.546875 -21.234375 L 1.546875 -21.703125 L 9.765625 -21.703125 C 13.273438 -21.703125 15.804688 -21.164062 17.359375 -20.09375 C 18.910156 -19.03125 19.6875 -17.550781 19.6875 -15.65625 C 19.6875 -14.375 19.34375 -13.332031 18.65625 -12.53125 C 17.976562 -11.738281 17.101562 -11.144531 16.03125 -10.75 C 14.894531 -10.320312 13.6875 -10.097656 12.40625 -10.078125 L 12.40625 -9.921875 C 13.164062 -9.878906 13.835938 -9.765625 14.421875 -9.578125 C 15.859375 -9.117188 16.835938 -8.300781 17.359375 -7.125 L 20.15625 -0.9375 L 21.703125 -0.46875 L 21.703125 0 L 17.359375 0 C 15.660156 0 14.421875 -0.878906 13.640625 -2.640625 L 10.546875 -9.609375 L 8.53125 -9.609375 L 8.53125 -0.9375 L 10.6875 -0.46875 L 10.6875 0 L 1.546875 0 Z M 9.765625 -10.390625 C 11.210938 -10.390625 12.347656 -10.84375 13.171875 -11.75 C 14.003906 -12.65625 14.421875 -13.957031 14.421875 -15.65625 C 14.421875 -17.351562 14.003906 -18.65625 13.171875 -19.5625 C 12.347656 -20.46875 11.210938 -20.921875 9.765625 -20.921875 L 8.53125 -20.921875 L 8.53125 -10.390625 Z M 9.765625 -10.390625 "/></g></g></g><g fill="#000000" fill-opacity="1"><g transform="translate(147.039391, 249.2499)"><g><path d="M 11.46875 0.46875 C 9.445312 0.46875 7.675781 0.03125 6.15625 -0.84375 C 4.632812 -1.726562 3.457031 -3.015625 2.625 -4.703125 C 1.800781 -6.398438 1.390625 -8.445312 1.390625 -10.84375 C 1.390625 -13.25 1.800781 -15.296875 2.625 -16.984375 C 3.457031 -18.679688 4.632812 -19.96875 6.15625 -20.84375 C 7.675781 -21.726562 9.445312 -22.171875 11.46875 -22.171875 C 13.5 -22.171875 15.269531 -21.726562 16.78125 -20.84375 C 18.300781 -19.96875 19.472656 -18.679688 20.296875 -16.984375 C 21.128906 -15.296875 21.546875 -13.25 21.546875 -10.84375 C 21.546875 -8.445312 21.128906 -6.398438 20.296875 -4.703125 C 19.472656 -3.015625 18.300781 -1.726562 16.78125 -0.84375 C 15.269531 0.03125 13.5 0.46875 11.46875 0.46875 Z M 11.46875 -0.15625 C 12.269531 -0.15625 13.015625 -0.492188 13.703125 -1.171875 C 14.398438 -1.859375 14.976562 -2.992188 15.4375 -4.578125 C 15.894531 -6.171875 16.125 -8.257812 16.125 -10.84375 C 16.125 -13.425781 15.894531 -15.515625 15.4375 -17.109375 C 14.976562 -18.703125 14.398438 -19.835938 13.703125 -20.515625 C 13.015625 -21.203125 12.269531 -21.546875 11.46875 -21.546875 C 10.664062 -21.546875 9.914062 -21.203125 9.21875 -20.515625 C 8.53125 -19.835938 7.957031 -18.703125 7.5 -17.109375 C 7.039062 -15.515625 6.8125 -13.425781 6.8125 -10.84375 C 6.8125 -8.257812 7.039062 -6.171875 7.5 -4.578125 C 7.957031 -2.992188 8.53125 -1.859375 9.21875 -1.171875 C 9.914062 -0.492188 10.664062 -0.15625 11.46875 -0.15625 Z M 8.578125 -23.5625 C 7.960938 -23.5625 7.445312 -23.765625 7.03125 -24.171875 C 6.625 -24.585938 6.421875 -25.109375 6.421875 -25.734375 C 6.421875 -26.347656 6.625 -26.863281 7.03125 -27.28125 C 7.445312 -27.695312 7.960938 -27.90625 8.578125 -27.90625 C 9.203125 -27.90625 9.71875 -27.695312 10.125 -27.28125 C 10.539062 -26.863281 10.75 -26.347656 10.75 -25.734375 C 10.75 -25.109375 10.539062 -24.585938 10.125 -24.171875 C 9.71875 -23.765625 9.203125 -23.5625 8.578125 -23.5625 Z M 14.3125 -23.5625 C 13.695312 -23.5625 13.179688 -23.765625 12.765625 -24.171875 C 12.359375 -24.585938 12.15625 -25.109375 12.15625 -25.734375 C 12.15625 -26.347656 12.359375 -26.863281 12.765625 -27.28125 C 13.179688 -27.695312 13.695312 -27.90625 14.3125 -27.90625 C 14.9375 -27.90625 15.453125 -27.695312 15.859375 -27.28125 C 16.273438 -26.863281 16.484375 -26.347656 16.484375 -25.734375 C 16.484375 -25.109375 16.273438 -24.585938 15.859375 -24.171875 C 15.453125 -23.765625 14.9375 -23.5625 14.3125 -23.5625 Z M 14.3125 -23.5625 "/></g></g></g><g fill="#000000" fill-opacity="1"><g transform="translate(169.976531, 249.2499)"><g><path d="M 4.34375 -17.828125 L 4.34375 -1.390625 L 6.8125 -0.46875 L 6.8125 0 L 0.9375 0 L 0.9375 -0.46875 L 3.40625 -1.390625 L 3.40625 -20.765625 L 1.546875 -21.234375 L 1.546875 -21.703125 L 5.421875 -21.703125 C 6.492188 -21.703125 7.34375 -21.476562 7.96875 -21.03125 C 8.601562 -20.582031 9.148438 -19.925781 9.609375 -19.0625 L 16.375 -6.140625 L 21.546875 -19.0625 C 21.898438 -19.96875 22.375 -20.632812 22.96875 -21.0625 C 23.570312 -21.488281 24.492188 -21.703125 25.734375 -21.703125 L 28.984375 -21.703125 L 28.984375 -21.234375 L 27.125 -20.765625 L 27.125 -0.9375 L 28.984375 -0.46875 L 28.984375 0 L 20.15625 0 L 20.15625 -0.46875 L 22.015625 -0.9375 L 22.015625 -17.828125 L 14.71875 0.3125 L 13.796875 0.3125 Z M 4.34375 -17.828125 "/></g></g></g><g fill="#000000" fill-opacity="1"><g transform="translate(200.507729, 249.2499)"><g><path d="M 9.140625 0.46875 C 7.671875 0.46875 6.296875 0.132812 5.015625 -0.53125 C 4.441406 -0.820312 3.957031 -1.160156 3.5625 -1.546875 C 3.269531 -1.078125 2.910156 -0.65625 2.484375 -0.28125 C 2.109375 -0.0078125 1.898438 0.132812 1.859375 0.15625 L 1.078125 0.15625 L 1.078125 -5.734375 L 2.328125 -5.734375 C 2.640625 -4.722656 3.070312 -3.8125 3.625 -3 C 4.882812 -1.207031 6.519531 -0.3125 8.53125 -0.3125 C 9.707031 -0.3125 10.644531 -0.660156 11.34375 -1.359375 C 12.050781 -2.066406 12.40625 -3.007812 12.40625 -4.1875 C 12.40625 -4.863281 12.203125 -5.46875 11.796875 -6 C 11.390625 -6.539062 10.882812 -7.019531 10.28125 -7.4375 C 9.6875 -7.851562 8.851562 -8.367188 7.78125 -8.984375 C 6.414062 -9.753906 5.304688 -10.445312 4.453125 -11.0625 C 3.609375 -11.6875 2.882812 -12.46875 2.28125 -13.40625 C 1.6875 -14.34375 1.390625 -15.453125 1.390625 -16.734375 C 1.390625 -17.753906 1.671875 -18.671875 2.234375 -19.484375 C 2.804688 -20.296875 3.660156 -20.945312 4.796875 -21.4375 C 5.941406 -21.925781 7.335938 -22.171875 8.984375 -22.171875 C 10.179688 -22.171875 11.382812 -21.828125 12.59375 -21.140625 C 13.039062 -20.890625 13.492188 -20.5625 13.953125 -20.15625 C 14.304688 -20.6875 14.664062 -21.109375 15.03125 -21.421875 C 15.40625 -21.691406 15.613281 -21.835938 15.65625 -21.859375 L 16.4375 -21.859375 L 16.4375 -15.96875 L 15.1875 -15.96875 C 14.914062 -16.957031 14.515625 -17.851562 13.984375 -18.65625 C 13.484375 -19.445312 12.863281 -20.097656 12.125 -20.609375 C 11.394531 -21.128906 10.554688 -21.390625 9.609375 -21.390625 C 8.804688 -21.390625 8.113281 -21.066406 7.53125 -20.421875 C 6.957031 -19.785156 6.671875 -18.972656 6.671875 -17.984375 C 6.671875 -17.210938 6.890625 -16.519531 7.328125 -15.90625 C 7.773438 -15.300781 8.320312 -14.769531 8.96875 -14.3125 C 9.625 -13.863281 10.507812 -13.316406 11.625 -12.671875 C 12.925781 -11.929688 13.976562 -11.269531 14.78125 -10.6875 C 15.59375 -10.113281 16.273438 -9.394531 16.828125 -8.53125 C 17.390625 -7.675781 17.671875 -6.691406 17.671875 -5.578125 C 17.671875 -4.460938 17.347656 -3.441406 16.703125 -2.515625 C 16.066406 -1.597656 15.109375 -0.867188 13.828125 -0.328125 C 12.546875 0.203125 10.984375 0.46875 9.140625 0.46875 Z M 9.140625 0.46875 "/></g></g></g><g fill="#000000" fill-opacity="1"><g transform="translate(218.950431, 249.2499)"><g/></g></g><g fill="#000000" fill-opacity="1"><g transform="translate(227.629355, 249.2499)"><g><path d="M 4.34375 -17.828125 L 4.34375 -1.390625 L 6.8125 -0.46875 L 6.8125 0 L 0.9375 0 L 0.9375 -0.46875 L 3.40625 -1.390625 L 3.40625 -20.765625 L 1.546875 -21.234375 L 1.546875 -21.703125 L 5.421875 -21.703125 C 6.492188 -21.703125 7.34375 -21.476562 7.96875 -21.03125 C 8.601562 -20.582031 9.148438 -19.925781 9.609375 -19.0625 L 16.375 -6.140625 L 21.546875 -19.0625 C 21.898438 -19.96875 22.375 -20.632812 22.96875 -21.0625 C 23.570312 -21.488281 24.492188 -21.703125 25.734375 -21.703125 L 28.984375 -21.703125 L 28.984375 -21.234375 L 27.125 -20.765625 L 27.125 -0.9375 L 28.984375 -0.46875 L 28.984375 0 L 20.15625 0 L 20.15625 -0.46875 L 22.015625 -0.9375 L 22.015625 -17.828125 L 14.71875 0.3125 L 13.796875 0.3125 Z M 4.34375 -17.828125 "/></g></g></g><g fill="#000000" fill-opacity="1"><g transform="translate(258.160542, 249.2499)"><g><path d="M 12.25 0.46875 C 9.1875 0.46875 6.867188 -0.25 5.296875 -1.6875 C 3.722656 -3.125 2.9375 -5.144531 2.9375 -7.75 L 2.9375 -20.765625 L 1.078125 -21.234375 L 1.078125 -21.703125 L 9.921875 -21.703125 L 9.921875 -21.234375 L 8.0625 -20.765625 L 8.0625 -7.75 C 8.0625 -5.082031 8.472656 -3.175781 9.296875 -2.03125 C 10.128906 -0.882812 11.316406 -0.3125 12.859375 -0.3125 C 13.816406 -0.3125 14.722656 -0.613281 15.578125 -1.21875 C 16.429688 -1.832031 17.117188 -2.703125 17.640625 -3.828125 C 18.171875 -4.953125 18.4375 -6.257812 18.4375 -7.75 L 18.4375 -20.3125 L 15.96875 -21.234375 L 15.96875 -21.703125 L 21.859375 -21.703125 L 21.859375 -21.234375 L 19.375 -20.3125 L 19.375 -7.75 C 19.375 -6.070312 19.0625 -4.613281 18.4375 -3.375 C 17.820312 -2.132812 16.976562 -1.179688 15.90625 -0.515625 C 14.832031 0.140625 13.613281 0.46875 12.25 0.46875 Z M 12.25 0.46875 "/></g></g></g><g fill="#000000" fill-opacity="1"><g transform="translate(280.167804, 249.2499)"><g><path d="M 4.34375 -17.828125 L 4.34375 -1.390625 L 6.8125 -0.46875 L 6.8125 0 L 0.9375 0 L 0.9375 -0.46875 L 3.40625 -1.390625 L 3.40625 -20.765625 L 1.546875 -21.234375 L 1.546875 -21.703125 L 5.421875 -21.703125 C 6.492188 -21.703125 7.34375 -21.476562 7.96875 -21.03125 C 8.601562 -20.582031 9.148438 -19.925781 9.609375 -19.0625 L 16.375 -6.140625 L 21.546875 -19.0625 C 21.898438 -19.96875 22.375 -20.632812 22.96875 -21.0625 C 23.570312 -21.488281 24.492188 -21.703125 25.734375 -21.703125 L 28.984375 -21.703125 L 28.984375 -21.234375 L 27.125 -20.765625 L 27.125 -0.9375 L 28.984375 -0.46875 L 28.984375 0 L 20.15625 0 L 20.15625 -0.46875 L 22.015625 -0.9375 L 22.015625 -17.828125 L 14.71875 0.3125 L 13.796875 0.3125 Z M 4.34375 -17.828125 "/></g></g></g><g fill="#000000" fill-opacity="1"><g transform="translate(310.698991, 249.2499)"><g><path d="M 9.140625 0.46875 C 7.671875 0.46875 6.296875 0.132812 5.015625 -0.53125 C 4.441406 -0.820312 3.957031 -1.160156 3.5625 -1.546875 C 3.269531 -1.078125 2.910156 -0.65625 2.484375 -0.28125 C 2.109375 -0.0078125 1.898438 0.132812 1.859375 0.15625 L 1.078125 0.15625 L 1.078125 -5.734375 L 2.328125 -5.734375 C 2.640625 -4.722656 3.070312 -3.8125 3.625 -3 C 4.882812 -1.207031 6.519531 -0.3125 8.53125 -0.3125 C 9.707031 -0.3125 10.644531 -0.660156 11.34375 -1.359375 C 12.050781 -2.066406 12.40625 -3.007812 12.40625 -4.1875 C 12.40625 -4.863281 12.203125 -5.46875 11.796875 -6 C 11.390625 -6.539062 10.882812 -7.019531 10.28125 -7.4375 C 9.6875 -7.851562 8.851562 -8.367188 7.78125 -8.984375 C 6.414062 -9.753906 5.304688 -10.445312 4.453125 -11.0625 C 3.609375 -11.6875 2.882812 -12.46875 2.28125 -13.40625 C 1.6875 -14.34375 1.390625 -15.453125 1.390625 -16.734375 C 1.390625 -17.753906 1.671875 -18.671875 2.234375 -19.484375 C 2.804688 -20.296875 3.660156 -20.945312 4.796875 -21.4375 C 5.941406 -21.925781 7.335938 -22.171875 8.984375 -22.171875 C 10.179688 -22.171875 11.382812 -21.828125 12.59375 -21.140625 C 13.039062 -20.890625 13.492188 -20.5625 13.953125 -20.15625 C 14.304688 -20.6875 14.664062 -21.109375 15.03125 -21.421875 C 15.40625 -21.691406 15.613281 -21.835938 15.65625 -21.859375 L 16.4375 -21.859375 L 16.4375 -15.96875 L 15.1875 -15.96875 C 14.914062 -16.957031 14.515625 -17.851562 13.984375 -18.65625 C 13.484375 -19.445312 12.863281 -20.097656 12.125 -20.609375 C 11.394531 -21.128906 10.554688 -21.390625 9.609375 -21.390625 C 8.804688 -21.390625 8.113281 -21.066406 7.53125 -20.421875 C 6.957031 -19.785156 6.671875 -18.972656 6.671875 -17.984375 C 6.671875 -17.210938 6.890625 -16.519531 7.328125 -15.90625 C 7.773438 -15.300781 8.320312 -14.769531 8.96875 -14.3125 C 9.625 -13.863281 10.507812 -13.316406 11.625 -12.671875 C 12.925781 -11.929688 13.976562 -11.269531 14.78125 -10.6875 C 15.59375 -10.113281 16.273438 -9.394531 16.828125 -8.53125 C 17.390625 -7.675781 17.671875 -6.691406 17.671875 -5.578125 C 17.671875 -4.460938 17.347656 -3.441406 16.703125 -2.515625 C 16.066406 -1.597656 15.109375 -0.867188 13.828125 -0.328125 C 12.546875 0.203125 10.984375 0.46875 9.140625 0.46875 Z M 9.140625 0.46875 "/></g></g></g></svg>