<svg id="visual" viewBox="0 0 960 192" width="960" height="192" xmlns="http://www.w3.org/2000/svg" xmlns:xlink="http://www.w3.org/1999/xlink" version="1.1"><path d="M0 113L26.7 114.5C53.3 116 106.7 119 160 112C213.3 105 266.7 88 320 83.3C373.3 78.7 426.7 86.3 480 95.7C533.3 105 586.7 116 640 116.7C693.3 117.3 746.7 107.7 800 110.3C853.3 113 906.7 128 933.3 135.5L960 143L960 0L933.3 0C906.7 0 853.3 0 800 0C746.7 0 693.3 0 640 0C586.7 0 533.3 0 480 0C426.7 0 373.3 0 320 0C266.7 0 213.3 0 160 0C106.7 0 53.3 0 26.7 0L0 0Z" fill="#ec625b"></path><path d="M0 85L26.7 78.5C53.3 72 106.7 59 160 51.2C213.3 43.3 266.7 40.7 320 45.2C373.3 49.7 426.7 61.3 480 69.2C533.3 77 586.7 81 640 78.5C693.3 76 746.7 67 800 59.3C853.3 51.7 906.7 45.3 933.3 42.2L960 39L960 0L933.3 0C906.7 0 853.3 0 800 0C746.7 0 693.3 0 640 0C586.7 0 533.3 0 480 0C426.7 0 373.3 0 320 0C266.7 0 213.3 0 160 0C106.7 0 53.3 0 26.7 0L0 0Z" fill="#e5271d"></path></svg>