<svg xmlns="http://www.w3.org/2000/svg" xmlns:xlink="http://www.w3.org/1999/xlink" id="visual" version="1.1" viewBox="0 0 960 114.23"><path d="M0 89L22.8 87C45.7 85 91.3 81 137 83.7C182.7 86.3 228.3 95.7 274 103.2C319.7 110.7 365.3 116.3 411.2 113.5C457 110.7 503 99.3 548.8 97.3C594.7 95.3 640.3 102.7 686 101.5C731.7 100.3 777.3 90.7 823 90.3C868.7 90 914.3 99 937.2 103.5L960 108L960 0L937.2 0C914.3 0 868.7 0 823 0C777.3 0 731.7 0 686 0C640.3 0 594.7 0 548.8 0C503 0 457 0 411.2 0C365.3 0 319.7 0 274 0C228.3 0 182.7 0 137 0C91.3 0 45.7 0 22.8 0L0 0Z" fill="#e5271d" stroke-linecap="round" stroke-linejoin="miter"/></svg>