<svg id="visual" viewBox="0 0 960 192" width="960" height="192" xmlns="http://www.w3.org/2000/svg" xmlns:xlink="http://www.w3.org/1999/xlink" version="1.1"><path d="M0 77L26.7 75.5C53.3 74 106.7 71 160 78C213.3 85 266.7 102 320 106.7C373.3 111.3 426.7 103.7 480 94.3C533.3 85 586.7 74 640 73.3C693.3 72.7 746.7 82.3 800 79.7C853.3 77 906.7 62 933.3 54.5L960 47L960 193L933.3 193C906.7 193 853.3 193 800 193C746.7 193 693.3 193 640 193C586.7 193 533.3 193 480 193C426.7 193 373.3 193 320 193C266.7 193 213.3 193 160 193C106.7 193 53.3 193 26.7 193L0 193Z" fill="#ec625b"></path><path d="M0 105L26.7 111.5C53.3 118 106.7 131 160 138.8C213.3 146.7 266.7 149.3 320 144.8C373.3 140.3 426.7 128.7 480 120.8C533.3 113 586.7 109 640 111.5C693.3 114 746.7 123 800 130.7C853.3 138.3 906.7 144.7 933.3 147.8L960 151L960 193L933.3 193C906.7 193 853.3 193 800 193C746.7 193 693.3 193 640 193C586.7 193 533.3 193 480 193C426.7 193 373.3 193 320 193C266.7 193 213.3 193 160 193C106.7 193 53.3 193 26.7 193L0 193Z" fill="#e5271d"></path></svg>